<?xml version="1.0" encoding="utf-8"?>
<!-- Generator: Adobe Illustrator 23.1.1, SVG Export Plug-In . SVG Version: 6.00 Build 0)  -->
<svg version="1.1" id="Layer_1" xmlns="http://www.w3.org/2000/svg" xmlns:xlink="http://www.w3.org/1999/xlink" x="0px" y="0px"
	 viewBox="0 0 406.9 183.6" style="enable-background:new 0 0 406.9 183.6;" xml:space="preserve">
<style type="text/css">
	.st0{fill:none;stroke:#36BEEF;stroke-miterlimit:10;}
	.st1{fill:#C6C6C5;}
	.st2{fill:#FFFFFF;stroke:#36BEEF;stroke-miterlimit:10;}
	.st3{fill:#FAA21B;}
	.st4{fill:#F8D41C;}
	.st5{fill:#BFBFBF;}
	.st6{fill:#A09F9F;}
	.st7{fill:#E87979;}
	.st8{fill:#F8EAC7;}
</style>
<g>
	<g>
		<line class="st0" x1="8.6" y1="58.3" x2="25.6" y2="58.3"/>
		<line class="st0" x1="8.6" y1="77.3" x2="25.6" y2="77.3"/>
		<line class="st0" x1="8.6" y1="96.3" x2="25.6" y2="96.3"/>
		<line class="st0" x1="8.6" y1="115.3" x2="25.6" y2="115.3"/>
		<line class="st0" x1="8.6" y1="134.3" x2="25.6" y2="134.3"/>
	</g>
	<g>
		<line class="st0" x1="36.2" y1="58.3" x2="396.8" y2="58.3"/>
		<line class="st0" x1="36.2" y1="77.3" x2="396.8" y2="77.3"/>
		<line class="st0" x1="36.2" y1="96.3" x2="396.8" y2="96.3"/>
		<line class="st0" x1="36.2" y1="115.3" x2="396.8" y2="115.3"/>
		<line class="st0" x1="36.2" y1="134.3" x2="396.8" y2="134.3"/>
	</g>
</g>
<g>
	<g>
		<path d="M66.8,132.7c0,0.8-0.5,1-1.1,0.6c-1.5-1.1-2.7-3.7-2.2-7.8c1.3-10.3,6.7-29,10.1-39.6c0.4-1.2,0.9-1.4,1.7-1
			c3,1.3,4,3.1,4.4,8.2c0.4,6.9,1.7,15.9,3.5,25.8c2.3-11.9,7-28.4,10.4-37.8c0.4-1,1-0.9,1.6-0.2c1.5,1.9,2.1,4.7,0.2,10.7
			c-2.6,7.8-7.6,26.7-9.6,37c-0.1,0.8-0.4,1-1.3,0.7c-2.4-0.6-3.7-2.1-5.1-6.5c-1.3-4.2-3.2-13.7-4.2-24
			C71.8,108.9,67.7,123.6,66.8,132.7z"/>
		<path d="M115.2,106.2c-0.1,6.3-2.9,14.4-7.7,17.4c-2.3,1.4-5.9,1.9-9.6-1.1c-4-3.4-4.4-9.7-2.5-16c1.6-5.4,4.9-10.4,9.1-11.7
			c2.1-0.6,3.5-0.3,5.3,1.3c2.1,1.8,4.3,1.8,5.1,7c0.1,0.6,0.2,1.1,0.2,1.6c0.4-0.1,0.8-0.3,1.4-0.5c0.5-0.1,0.6,0.2,0.4,0.7
			C116.5,105.6,115.8,106,115.2,106.2z M108.8,105.9c-1.7-0.8-4-2.9-4.6-5.4c-1.5,2-3,4.8-3.9,7.8c-1.7,6-1.3,12.7,0.9,13.8
			c2.3,1.2,6.1-2.3,8-9.5c0.6-2.2,1-4.4,1.2-6.2C109.8,106.3,109.3,106.1,108.8,105.9z M109.7,99.1c-0.9-2.2-2.2-1.4-2.1,0.7
			c0.1,2,1.3,3.8,2.7,4.6C110.4,102.1,110.2,100.3,109.7,99.1z"/>
		<path d="M117.1,90.1c-0.9-0.8-0.6-1.4,0.5-1.6c2-0.4,3.9-1,5.8-1.6c1.3-4.4,2.5-8.1,3.3-9.9c0.4-1.1,1.1-1.1,1.7-0.4
			c1.2,1.8,1.8,4.1,0.9,8.1c2.7-0.7,4.1,0.3,4.8,1.1c0.7,0.7,0.5,1.3-0.5,1.5c-1.6,0.1-3.7,0.9-5.4,1.5c-1.7,5.3-4.1,13.1-5.4,19.6
			c-1.1,5.7,0.6,9.8,3.6,9.3c3.2-0.6,6-6.5,7.4-12.3c0.2-0.9,1-1.3,1.5-0.3c0.6,1,0.5,2.4,0.2,4.2c-0.4,2.2-3.7,9.5-9.3,10.6
			c-4.7,0.9-9.6-3.4-8.1-12.3c0.7-3.8,2.3-10.4,4-16.7C119.7,91.4,117.9,90.7,117.1,90.1z"/>
		<path d="M142.6,113.9c5.9-1.1,9.7-7.8,11.7-13.2c0.2-0.6,0.8-0.8,1.2-0.2c0.4,0.5,0.6,2.5-0.2,4.6c-2,5-6.6,9.4-12,10.7
			c-8.9,2.2-14-5.9-11.5-16s8.8-15.4,12.8-14.2c2,0.7,3.5,1.4,5,2.7c1.7,1.4,2.1,5.8-0.1,10.1c-2.5,5-6.8,7.9-12.6,5
			C136.2,110.5,138.9,114.6,142.6,113.9z M144.7,96.4c1.6-3.5,2.3-7.5,1.1-8c-1.7-0.9-6.6,4.7-8.4,12.1c-0.1,0.5-0.2,0.9-0.3,1.3
			C141.1,103.2,143.3,99.6,144.7,96.4z"/>
		<path d="M162.4,72.1c-4.2,1.1-7.6,0.3-8.9-2.2c-0.4-0.6-0.2-1,0.6-1.1c6.4-0.9,17.4-6.2,21.4-7c3-0.6,5.8-0.4,7.5,2.1
			c0.3,0.5,0.3,1.1-0.6,1.2c-3.5,0.4-7.8,2.2-11.7,3.8c0.5,1.7,0.5,4.1-0.6,8c-2.5,8.6-6.2,19.8-8.7,33.9c-0.1,0.8-0.5,0.8-1.1,0.5
			c-1.2-0.7-2.5-2.6-2.4-6.2c0.3-6.1,4.4-23.1,8.6-34.5C165.1,71.2,163.7,71.7,162.4,72.1z"/>
		<path d="M191.1,75.3c0.4-1.1,1-1.3,1.6-0.8c1.3,1,2.6,3.9,1.7,7.8c-0.8,3.5-3.1,9.6-4,13.7c-0.9,4.3-0.2,7.4,2.1,6.7
			c2.8-0.8,5.6-6.5,7-11.9c0.2-0.7,0.7-0.9,1.1-0.3c0.4,0.6,0.8,2.3,0.4,4.5c-0.9,4.3-4.5,9.2-8.4,9.8c-3.8,0.7-6.3-1.1-7.1-4.4
			c-1.6,3.4-4.2,6.7-7.5,7.5c-6.5,1.5-9.9-7.1-6-16.9c3.8-9.6,8.6-14,12.1-14.8c3-0.7,5,1.3,5.4,4.1
			C190.1,78.2,190.6,76.6,191.1,75.3z M186.1,79.4c-2.3,0.3-6.4,6-8.8,13.2c-2.3,6.9-1.8,13.3,0.9,12.7c2.9-0.6,5.5-5.9,7.7-12.9
			C188.6,83.7,188.2,79.2,186.1,79.4z"/>
		<path d="M213.1,68.9c2.5-1.5,4.4-0.9,6.5,1.8c2,2.4,2.4,5.4,0.4,8.5c-1.9,2.9-4.3,5.6-8.5,7.9c1.6,5.7,4.5,9.2,7.2,8.9
			c2.9-0.4,5.6-6.7,6.7-11.5c0.2-0.9,0.8-1.2,1.4-0.4c0.5,0.8,0.8,2.5,0.1,4.5c-1,3.3-3.2,8.6-8.8,9.8c-4.9,1.1-10-2-12-11.5
			c-0.3-1.3-0.2-1.5,1-2.2c8-4.9,11.3-12,9.8-13.6c-1.1-1.1-4,0.4-7,4.1c-4.3,5.2-6.1,12.1-8.5,26.3c-0.1,0.6-0.6,0.9-1.2,0.4
			c-1.3-1-2.2-3.1-1.8-7.7c0.5-6.8,6.9-32.6,11.2-42.5c0.4-1,1.1-1.2,1.7-0.5c1.5,1.9,2,4.7,0.3,10.5c-1,3.3-2.6,8.8-3.7,12.7
			C209.5,71.6,211.4,69.9,213.1,68.9z"/>
		<path d="M262.9,88.4c-5.4,0.9-8.6-3.3-8.1-9.4c0.4-5,3.4-11.2,5.7-15.3c-2.6,2.7-5.6,4.1-7.8,4.6c-3,13.5-8.6,24.1-16.9,26.2
			c-8.9,2.2-13.9-5.8-11.4-15.9c2.4-9.7,8.7-15.3,12.7-14.1c2,0.7,3.5,1.3,5,2.6c1.6,1.4,1.8,5.7-0.2,9.9c-2.3,5-6.6,7.9-12.4,5.1
			c-0.8,6.9,2,11.1,5.6,10.4c7.8-1.4,13-14.3,14.8-24.1c-5.9-1-1.2-11.9,1.7-12.7c2.2-0.6,2.4,3.9,1.7,8.8c2.4-0.9,4.6-2.6,6.9-5.1
			c0.7-0.8,1.3-1.2,1.9-0.7c1.8,1.2,4.3,4.2,2.7,7c-2.5,4.4-4.9,10-5.3,14.1c-0.3,4.1,1.2,6.7,3.3,6.3c3-0.5,5.5-6,6.6-11.7
			c0.2-0.6,0.6-0.9,1-0.3c0.5,0.7,1.1,2.5,0.7,4.6C270.3,83.5,266.9,87.7,262.9,88.4z M237.2,75.2c1.6-3.4,2.2-7.4,1.1-7.9
			c-1.8-1-6.6,4.8-8.3,12c-0.1,0.4-0.2,0.9-0.3,1.3C233.6,81.8,235.7,78.3,237.2,75.2z"/>
	</g>
	<g>
		<g>
			<path class="st1" d="M335.3,97.9l-36.8-0.2c-9.5,0-17.2-7.8-17.1-17.3l0.2-33.4c0-9.5,7.8-17.2,17.3-17.1l36.8,0.2
				c9.5,0,17.2,7.8,17.1,17.3l-0.2,33.4C352.6,90.3,344.8,98,335.3,97.9z"/>
			<g>
				<path class="st2" d="M337.6,92.6l-36.8-0.2c-9.5,0-17.2-7.8-17.1-17.3l0.2-33.4c0-9.5,7.8-17.2,17.3-17.1l36.8,0.2
					c9.5,0,17.2,7.8,17.1,17.3l-0.2,33.4C354.9,85,347.1,92.6,337.6,92.6z"/>
				<g>
					<line class="st0" x1="288.9" y1="31.7" x2="291.9" y2="31.7"/>
					<line class="st0" x1="288.9" y1="40.9" x2="291.8" y2="40.9"/>
					<line class="st0" x1="288.9" y1="50.1" x2="291.8" y2="50.1"/>
					<line class="st0" x1="288.8" y1="59.4" x2="291.8" y2="59.4"/>
					<line class="st0" x1="288.8" y1="68.6" x2="291.7" y2="68.6"/>
					<line class="st0" x1="293.7" y1="31.7" x2="347.5" y2="32"/>
					<line class="st0" x1="293.7" y1="40.9" x2="347.5" y2="41.2"/>
					<line class="st0" x1="293.6" y1="50.2" x2="347.4" y2="50.4"/>
					<line class="st0" x1="293.6" y1="59.4" x2="347.4" y2="59.6"/>
					<line class="st0" x1="293.5" y1="68.6" x2="347.4" y2="68.9"/>
					<line class="st0" x1="288.7" y1="76.2" x2="291.7" y2="76.2"/>
					<line class="st0" x1="288.7" y1="85.4" x2="291.6" y2="85.4"/>
					<line class="st0" x1="293.5" y1="76.2" x2="347.3" y2="76.4"/>
					<line class="st0" x1="293.5" y1="85.4" x2="347.3" y2="85.7"/>
				</g>
			</g>
		</g>
		<g>
			
				<rect x="305.7" y="38.1" transform="matrix(0.7231 -0.6907 0.6907 0.7231 61.0396 244.8743)" class="st3" width="60.6" height="16.4"/>
			
				<rect x="305.7" y="42.2" transform="matrix(0.7231 -0.6907 0.6907 0.7231 61.0396 244.8743)" class="st4" width="60.6" height="8.2"/>
			<path class="st5" d="M354.8,17.3l11.1,11.6c0.5,0.5,0.5,1.4,0,1.9l-0.4,0.4c-0.5,0.5-1.4,0.5-1.9,0l-11.1-11.6
				c-0.5-0.5-0.5-1.4,0-1.9l0.4-0.4C353.4,16.7,354.2,16.8,354.8,17.3z"/>
			
				<rect x="359.8" y="13.7" transform="matrix(0.7231 -0.6907 0.6907 0.7231 84.9288 255.7463)" class="st6" width="3.3" height="16.4"/>
			<path class="st7" d="M367.9,7.2l8.6,9c0.9,0.9,0.8,2.3-0.1,3.2l-5.6,5.3c-0.9,0.9-2.3,0.8-3.2-0.1l-8.6-9
				c-0.9-0.9-0.8-2.3,0.1-3.2l5.6-5.3C365.6,6.2,367,6.3,367.9,7.2z"/>
			<polygon class="st7" points="367.1,16.5 367.1,16.5 368.9,14.8 368.9,14.8 			"/>
			<path class="st5" d="M359.6,12.8l10.9,11.4c0.6,0.6,0.5,1.5,0,2.1l-0.3,0.3c-0.6,0.6-1.5,0.5-2.1,0l-10.9-11.4
				c-0.6-0.6-0.5-1.5,0-2.1l0.3-0.3C358.1,12.2,359.1,12.2,359.6,12.8z"/>
			<path class="st8" d="M319.7,73.2c0,0,0.2-2.5-2.8-3c0,0-0.2-5.2-5.7-5.9c0,0,0.3-2.9-2.8-3l-8.9,19.8L319.7,73.2z"/>
			<path d="M306.7,76c0,0,0.2-2.4-1.7-1.5c0,0-0.1-2.9-2-1l-3.5,7.8l8.1-3.2C307.6,77.9,309.1,76,306.7,76z"/>
		</g>
	</g>
	<g>
		<path d="M38.1,69.6c-0.7-0.5-0.5-0.9,0.2-1.1c1.3-0.4,2.5-1,3.7-1.5c0.5-3,1-5.6,1.4-6.8c0.2-0.7,0.7-0.9,1.1-0.4
			c1,1.1,1.5,2.6,1.3,5.3c1.7-0.7,2.7-0.1,3.3,0.3c0.5,0.4,0.4,0.8-0.2,1.1c-1,0.2-2.4,0.9-3.5,1.5c-0.7,3.7-1.7,9-2,13.4
			c-0.3,3.8,1.2,6.5,3.1,5.9c2.1-0.6,3.5-4.8,3.9-8.8c0.1-0.6,0.5-0.9,0.9-0.3c0.5,0.6,0.6,1.5,0.5,2.7c-0.1,1.5-1.7,6.6-5.3,7.7
			c-3,1-6.6-1.5-6.3-7.5c0.1-2.6,0.7-7.1,1.3-11.3C39.9,70.3,38.6,70,38.1,69.6z"/>
		<path d="M63.4,82.4c-3.8,1.4-5.7-1-5.8-5.5c-0.1-4.9,2.1-11,1.3-11.2c-0.8-0.1-4.6,4.7-5.6,10c-0.7,3.3-1.2,7-1.3,10.2
			c0,0.5-0.3,0.7-0.7,0.5c-1-0.6-1.9-1.7-1.9-4.7C49.3,76.6,53,57.3,55,51.4c0.2-0.7,0.7-0.8,1.1-0.3c1.1,1.1,1.7,3.4,1.1,6.9
			c-0.4,2.2-1.5,6.7-2.3,10.4c1.2-2.5,3-4.8,4.3-5.1c1.6-0.4,3.8,1.4,3.5,4.1c-0.3,2.3-1.2,6.4-1.4,9.1c-0.2,3,0.8,5.1,2.5,4.4
			c1.8-0.8,3.1-4.9,3.5-8.3c0-0.5,0.5-0.6,0.8-0.3c0.4,0.4,0.7,1.4,0.6,3C68,78.2,66,81.5,63.4,82.4z"/>
		<path d="M74.8,76.8c3.8-1.2,5.8-6,6.7-9.7c0.1-0.4,0.5-0.6,0.8-0.2c0.3,0.3,0.6,1.6,0.2,3.1c-0.9,3.4-3.6,6.8-7.1,8.1
			c-5.7,2.2-9.7-2.8-8.9-9.6c0.8-6.9,4.6-10.9,7.3-10.4c1.4,0.3,2.4,0.7,3.5,1.4c1.2,0.8,1.8,3.7,0.8,6.7c-1.2,3.5-3.8,5.8-7.9,4.3
			C70.2,75.1,72.3,77.6,74.8,76.8z M74.8,65.1c0.8-2.4,0.9-5.1,0.1-5.4c-1.2-0.4-4,3.6-4.6,8.7c0,0.3-0.1,0.6-0.1,0.9
			C72.9,69.9,74.1,67.3,74.8,65.1z"/>
	</g>
</g>
<g>
	<path d="M73.9,162.3c0,1.1,0.4,1.6,1.1,1.6c0.1,0,0.3,0,0.5-0.1c0.2,0,0.4-0.1,0.5-0.1c0.2,0,0.3,0.1,0.5,0.2
		c0.1,0.1,0.2,0.3,0.2,0.5c0,0.5-0.3,0.7-0.9,0.7h-0.1c-0.1,0-0.1,0-0.1,0l-1-0.1c-0.4-0.1-0.8-0.1-1.3-0.1s-1,0-1.4,0.1l-1,0.1
		h-0.1c-0.1,0-0.1,0-0.1,0c-0.6,0-0.9-0.2-0.9-0.7c0-0.4,0.2-0.7,0.7-0.7c0.1,0,0.3,0,0.5,0.1c0.2,0,0.4,0.1,0.5,0.1
		c0.7,0,1-0.5,1-1.6v-1.5V159v-1.8v-3.4c0-1-0.5-1.5-1.5-1.5h-1c-1,0-1.5,0.5-1.5,1.5c0,0.4,0,0.6,0,0.7l0.1,0.8c0,0.1,0,0.3,0,0.5
		c0,0.9-0.3,1.3-0.8,1.3s-0.8-0.3-0.8-1c0-0.2,0-0.5,0-0.9c0-0.7,0.1-1.1,0.1-1.3c0-0.3,0-0.7,0-1.1c0-0.7-0.1-1.1-0.1-0.9
		c0-0.6,0.3-0.9,0.8-0.9c0.2,0,0.6,0,1.4,0.1c0.1,0,0.6,0,1.7,0.1h2.4c0.3,0,1,0,2.2,0c0.3,0,0.7,0,1.4-0.1c0.6,0,1-0.1,1.3-0.1
		c0.7,0,1,0.3,1,0.9l0,0c0,0.1,0,0.4-0.1,0.8s-0.1,0.8-0.1,1.2v0.2c0,0.2,0,0.5,0.1,1c0.1,0.6,0.1,1,0.1,1.1c0,0.6-0.3,0.9-0.8,0.9
		s-0.8-0.4-0.8-1.1c0-0.3,0-0.6,0.1-1.1s0.1-0.9,0.1-1.1c0-1-0.6-1.5-1.7-1.5h-0.6c-0.5,0-0.9,0.1-1.1,0.3s-0.4,0.6-0.4,1.1
		l-0.1,1.5C73.9,155.2,73.9,162.3,73.9,162.3z"/>
	<path d="M90.4,165.4c-1.1,0-1.9-0.5-2.1-1.5c-0.7,1-1.8,1.6-3.4,1.6c-1.1,0-2-0.3-2.7-0.8c-0.7-0.6-1-1.3-1-2.2
		c0-1.2,0.5-2,1.5-2.6c0.4-0.2,0.7-0.3,1-0.4c0.3-0.1,0.8-0.1,1.6-0.2c1.2-0.1,1.9-0.3,2.3-0.5s0.5-0.6,0.5-1.2c0-0.6-0.2-1-0.6-1.4
		s-1-0.5-1.7-0.5c-0.6,0-1.2,0.2-1.8,0.5c-0.2,0.1-0.3,0.3-0.3,0.4c0,0.1,0.1,0.1,0.2,0.2c0.2,0.1,0.3,0.4,0.3,0.7s-0.1,0.5-0.3,0.7
		c-0.2,0.2-0.5,0.3-0.8,0.3c-0.4,0-0.7-0.1-0.9-0.4c-0.2-0.3-0.4-0.6-0.4-0.9c0-0.8,0.4-1.5,1.2-2c0.8-0.6,1.7-0.8,2.8-0.8
		c2.5,0,3.8,1.2,3.8,3.7v4.2c0,0.7,0,1.1,0,1.2c0.1,0.5,0.3,0.7,0.7,0.7c0.5,0,0.7-0.4,0.7-1.3v-1c0-0.4,0.2-0.7,0.6-0.7
		c0.5,0,0.7,0.3,0.7,1v0.1v1.2C92.5,164.7,91.8,165.4,90.4,165.4z M88.1,161.2v-1.5c-0.3,0.3-0.6,0.5-1,0.6c-0.3,0.1-1,0.2-1.8,0.3
		c-1.6,0.2-2.4,0.7-2.4,1.8c0,0.5,0.2,1,0.6,1.3s0.9,0.5,1.6,0.5c0.9,0,1.7-0.3,2.2-0.8C87.8,162.8,88.1,162.1,88.1,161.2z"/>
	<path d="M97.6,159.8l3.6-3.4c0.1-0.1,0.2-0.2,0.2-0.4s-0.1-0.2-0.3-0.2c-0.1,0-0.3,0-0.6,0.1c-0.3,0.1-0.5,0.1-0.6,0.1
		c-0.5,0-0.7-0.2-0.7-0.7s0.3-0.7,0.9-0.7c0.2,0,0.3,0,0.6,0c1,0.1,1.7,0.2,2.2,0.2c0.3,0,0.5,0,0.7,0l0.9-0.1c0.2,0,0.4,0,0.5,0
		c0.7,0,1,0.2,1,0.7s-0.2,0.7-0.7,0.7c-0.1,0-0.3,0-0.5-0.1c-0.2,0-0.4-0.1-0.5-0.1c-0.4,0-0.7,0.2-1.1,0.5l-2.2,2
		c-0.2,0.1-0.2,0.3-0.2,0.3c0,0.1,0.1,0.2,0.2,0.3l2.7,3.5c0.7,0.9,1.2,1.3,1.5,1.3c0.1,0,0.2,0,0.3-0.1c0.2,0,0.3-0.1,0.4-0.1
		c0.5,0,0.8,0.2,0.8,0.7s-0.3,0.7-1,0.7c-0.3,0-0.6,0-1.1-0.1s-0.9-0.1-1.1-0.1s-0.5,0-1,0.1c-0.4,0.1-0.7,0.1-1,0.1
		c-0.5,0-0.8-0.2-0.8-0.7c0-0.4,0.3-0.7,0.8-0.7c0.1,0,0.3,0,0.3,0c0.3,0.1,0.4,0.1,0.5,0.1s0.2,0,0.2-0.1c0,0,0,0,0-0.1l0,0
		l-0.2-0.3l-0.3-0.4l-2.1-2.8c-0.1-0.2-0.3-0.3-0.3-0.3c-0.1,0-0.2,0.1-0.3,0.2l-1.6,1.4v0.5c0,0.7,0,1.1,0,1.1
		c0.1,0.5,0.3,0.7,0.6,0.7c0.1,0,0.3,0,0.4,0s0.2,0,0.4,0c0.5,0,0.7,0.2,0.7,0.7S99.5,165,99,165c-0.2,0-0.6,0-1.1-0.1
		s-0.9-0.1-1.1-0.1c-0.3,0-0.7,0-1.1,0.1c-0.5,0.1-0.9,0.1-1.1,0.1c-0.5,0-0.8-0.2-0.8-0.7s0.3-0.7,0.8-0.7c0.1,0,0.2,0,0.4,0
		c0.2,0,0.4,0.1,0.5,0.1c0.3,0,0.5-0.3,0.6-0.8l0.1-0.8v-8.5c0-0.8-0.1-1.2-0.1-1.4s-0.2-0.3-0.4-0.3c-0.1,0-0.2,0-0.4,0
		c-0.2,0.1-0.4,0.1-0.6,0.1c-0.5,0-0.7-0.2-0.7-0.7s0.3-0.7,0.8-0.7c0.3,0,0.5,0,0.6,0c0.4,0,0.6,0.1,0.7,0.1s0.3,0,0.5,0
		s0.4,0,0.5,0h0.1c0.5,0,0.7,0.3,0.7,0.9v8.2H97.6z"/>
	<path d="M117.5,158.9c0,0.5,0,0.9-0.1,1s-0.3,0.2-0.6,0.2h-6.7c-0.2,0-0.3,0-0.4,0.1c-0.1,0-0.1,0.1-0.1,0.2c0,1,0.3,1.9,0.9,2.6
		c0.6,0.7,1.4,1,2.4,1c0.6,0,1.2-0.2,1.7-0.5s0.8-0.8,1-1.3l0.2-0.6c0.1-0.3,0.3-0.5,0.7-0.5c0.5,0,0.8,0.3,0.8,0.8
		c0,0.9-0.5,1.7-1.4,2.4s-2,1.1-3.1,1.1c-1.5,0-2.6-0.5-3.5-1.5s-1.3-2.3-1.3-4s0.5-3.1,1.4-4.2c0.9-1.1,2.1-1.6,3.6-1.6
		c1.3,0,2.4,0.4,3.3,1.3S117.5,157.6,117.5,158.9z M109.9,158.4c0,0.2,0.2,0.3,0.5,0.3h5c0.3,0,0.4-0.1,0.4-0.3
		c0-0.7-0.3-1.4-0.8-1.9c-0.6-0.5-1.2-0.8-2-0.8s-1.5,0.3-2.1,0.9C110.2,157,109.9,157.7,109.9,158.4z"/>
	<path d="M131.9,151.9l5.6,11.7v-8.5c0-1.1,0-1.7,0-1.8c-0.1-0.7-0.5-1.1-1.1-1.1c-0.1,0-0.3,0-0.5,0.1c-0.2,0-0.4,0.1-0.5,0.1
		c-0.2,0-0.3-0.1-0.5-0.2c-0.1-0.1-0.2-0.3-0.2-0.5c0-0.5,0.3-0.8,0.9-0.8c0.1,0,0.2,0,0.3,0l0.9,0.1c0.4,0.1,0.8,0.1,1.2,0.1
		s0.8,0,1.4-0.1c0.2,0,0.5-0.1,0.7-0.1h0.1c0.1,0,0.1,0,0.1,0c0.6,0,0.9,0.2,0.9,0.7s-0.3,0.7-0.9,0.7c-0.1,0-0.2,0-0.2,0h-0.2
		c-0.4,0-0.7,0.1-0.8,0.3s-0.2,0.6-0.2,1.2v1.2v2.1v5.6c0,1-0.1,1.6-0.3,2s-0.6,0.6-1.1,0.6c-0.7,0-1.3-0.5-1.8-1.5l-5.5-11.4v9.8
		c0,1,0.4,1.6,1.1,1.6c0.1,0,0.3,0,0.5,0s0.4,0,0.5,0c0.4,0,0.7,0.2,0.7,0.7s-0.3,0.7-0.9,0.7H132c-0.1,0-0.1,0-0.1,0l-0.9-0.1
		c-0.5-0.1-0.9-0.1-1.3-0.1c-0.4,0-0.8,0-1.4,0.1l-1,0.1h-0.1c-0.1,0-0.1,0-0.2,0c-0.6,0-0.9-0.2-0.9-0.7c0-0.4,0.2-0.7,0.7-0.7
		c0.1,0,0.3,0,0.6,0c0.2,0,0.3,0.1,0.4,0.1c0.7,0,1.1-0.5,1.1-1.6v-1.4v-1.8v-1.8v-3.4c0-1-0.4-1.6-1.1-1.6c-0.1,0-0.2,0-0.4,0
		c-0.3,0-0.5,0.1-0.6,0.1c-0.4,0-0.7-0.2-0.7-0.7s0.3-0.7,0.9-0.7c0.1,0,0.2,0,0.3,0c0.7,0.1,1.2,0.1,1.6,0.1c0.2,0,0.5,0,0.9-0.1
		s0.7-0.1,0.9-0.1c0.4,0,0.7,0.1,0.9,0.4L131.9,151.9z"/>
	<path d="M147.7,165.4c-1.5,0-2.6-0.5-3.5-1.5s-1.3-2.4-1.3-4.1s0.4-3.1,1.3-4.1c0.9-1,2.1-1.5,3.6-1.5s2.7,0.5,3.6,1.5
		c0.9,1,1.3,2.3,1.3,4.1c0,1.7-0.5,3.1-1.4,4.1C150.4,164.9,149.2,165.4,147.7,165.4z M147.8,155.6c-1,0-1.8,0.3-2.3,1
		c-0.6,0.7-0.9,1.7-0.9,2.9v0.3c0,1.3,0.3,2.3,0.8,3.1c0.6,0.7,1.3,1.1,2.3,1.1s1.8-0.4,2.4-1.1c0.6-0.7,0.9-1.8,0.9-3.1
		C151,157,149.9,155.6,147.8,155.6z"/>
	<path d="M161.2,162.2v-1.3c0-0.6,0.3-0.9,0.8-0.9s0.7,0.3,0.7,1c0,1.5-0.2,2.6-0.6,3.2c-0.5,0.8-1.4,1.2-2.6,1.2
		c-1.1,0-1.9-0.4-2.4-1.1c-0.3-0.5-0.5-1.4-0.5-2.6v-5c0-0.3-0.1-0.4-0.4-0.4h-0.7c-0.2,0-0.4-0.1-0.6-0.2s-0.2-0.3-0.2-0.5
		s0.1-0.4,0.2-0.5s0.3-0.2,0.5-0.2h0.8c0.2,0,0.4-0.1,0.4-0.4v-2.2c0-0.5,0.3-0.8,0.8-0.8s0.8,0.3,0.8,0.8v2.2
		c0,0.2,0.1,0.3,0.4,0.3h2.3c0.5,0,0.8,0.2,0.8,0.7s-0.3,0.8-0.9,0.8h-2.3c-0.2,0-0.3,0.1-0.3,0.4v5.2c0,1.5,0.5,2.2,1.5,2.2
		C160.7,164,161.2,163.4,161.2,162.2z"/>
	<path d="M174.4,158.9c0,0.5,0,0.9-0.1,1s-0.3,0.2-0.6,0.2H167c-0.2,0-0.3,0-0.4,0.1c-0.1,0-0.1,0.1-0.1,0.2c0,1,0.3,1.9,0.9,2.6
		c0.6,0.7,1.4,1,2.4,1c0.6,0,1.2-0.2,1.7-0.5s0.8-0.8,1-1.3l0.2-0.6c0.1-0.3,0.3-0.5,0.7-0.5c0.5,0,0.8,0.3,0.8,0.8
		c0,0.9-0.5,1.7-1.4,2.4s-2,1.1-3.1,1.1c-1.5,0-2.6-0.5-3.5-1.5s-1.3-2.3-1.3-4s0.5-3.1,1.4-4.2c0.9-1.1,2.1-1.6,3.6-1.6
		c1.3,0,2.4,0.4,3.3,1.3S174.4,157.6,174.4,158.9z M166.7,158.4c0,0.2,0.2,0.3,0.5,0.3h5c0.3,0,0.4-0.1,0.4-0.3
		c0-0.7-0.3-1.4-0.8-1.9c-0.6-0.5-1.2-0.8-2-0.8s-1.5,0.3-2.1,0.9C167.1,157,166.7,157.7,166.7,158.4z"/>
	<path d="M181.4,154.2c0.9,0,1.7,0.2,2.3,0.7l0,0c0-0.5,0.2-0.8,0.7-0.8s0.7,0.2,0.7,0.7c0,0.1,0,0.3,0,0.6s-0.1,0.6-0.1,0.8
		s0,0.4,0.1,0.7c0,0.3,0.1,0.6,0.1,0.7c0,0.5-0.2,0.8-0.7,0.8c-0.4,0-0.7-0.2-0.7-0.7V157c0-0.4-0.3-0.8-0.7-1.1
		c-0.5-0.3-1-0.5-1.6-0.5s-1.2,0.2-1.6,0.5s-0.7,0.7-0.7,1.2c0,0.9,0.6,1.4,1.8,1.6l1.2,0.2c2.4,0.3,3.6,1.3,3.6,3
		c0,1-0.4,1.8-1.2,2.4c-0.8,0.6-1.8,0.9-3,0.9s-2.2-0.3-3-1c0,0.1,0,0.3,0,0.4c0,0.5-0.2,0.8-0.7,0.8s-0.8-0.3-0.8-0.9
		c0,0.1,0-0.3,0.1-1.1c0-0.2,0-0.4,0-0.6c0-0.3,0-0.7-0.1-0.9s-0.1-0.5-0.1-0.7c0-0.5,0.2-0.7,0.7-0.7c0.3,0,0.5,0.1,0.6,0.2
		s0.1,0.5,0.1,1.1s0.3,1.1,0.9,1.5s1.4,0.6,2.4,0.6c0.7,0,1.3-0.2,1.7-0.5s0.7-0.8,0.7-1.3c0-1-0.8-1.5-2.3-1.7
		c-1.4-0.2-2.5-0.4-3.3-0.9c-0.8-0.4-1.1-1.1-1.1-2.2c0-1,0.4-1.8,1.1-2.4C179.2,154.5,180.2,154.2,181.4,154.2z"/>
	<path d="M197.6,157.5l1.5,6.4l1.6-7.4c0.2-0.8,0.4-1.3,0.6-1.6c0.2-0.3,0.5-0.4,0.9-0.4s0.8,0.1,1,0.4c0.2,0.3,0.4,0.8,0.6,1.6
		l1.6,7.4l1.6-6.4c0.1-0.4,0.1-0.8,0.1-1.1l0,0c0-0.4-0.2-0.6-0.5-0.6c-0.1,0-0.3,0-0.5,0.1c-0.2,0-0.4,0.1-0.5,0.1
		c-0.5,0-0.8-0.2-0.8-0.7s0.3-0.7,1-0.7c0.1,0,0.2,0,0.3,0l0.9,0.1c0.2,0,0.6,0,1,0s0.7,0,1.1-0.1l0.7-0.1c0.1,0,0.1,0,0.2,0
		c0.6,0,0.9,0.2,0.9,0.7s-0.2,0.7-0.7,0.7c-0.2,0-0.3,0-0.4-0.1c-0.2,0-0.4-0.1-0.4-0.1c-0.4,0-0.8,0.8-1.2,2.3l-1.4,5.4
		c-0.2,0.7-0.4,1.1-0.6,1.4c-0.2,0.3-0.5,0.4-0.9,0.4c-0.7,0-1.2-0.6-1.5-1.8l-1.6-7.5l-1.6,7.3c-0.2,0.7-0.4,1.2-0.6,1.5
		s-0.6,0.4-1,0.4c-0.7,0-1.1-0.4-1.3-1.3l-2-7.6c-0.1-0.4-0.3-0.7-0.6-0.7c-0.1,0-0.2,0-0.4,0.1c-0.2,0-0.4,0.1-0.5,0.1
		c-0.5,0-0.7-0.2-0.7-0.7s0.3-0.7,0.9-0.7c0.1,0,0.2,0,0.2,0l0.9,0.1c0.2,0,0.5,0,0.8,0c0.4,0,0.8,0,1.3-0.1c0.6-0.1,1-0.1,1.1-0.1
		c0.6,0,0.9,0.2,0.9,0.7s-0.3,0.7-0.8,0.7c-0.1,0-0.3,0-0.5,0c-0.2-0.1-0.4-0.1-0.5-0.1c-0.4,0-0.5,0.2-0.5,0.6
		C197.4,156.8,197.5,157.1,197.6,157.5z"/>
	<path d="M215.9,159v2.7c0,0.7,0,1.1,0,1.2c0.1,0.6,0.3,0.9,0.6,0.9c0.1,0,0.2,0,0.5-0.1c0.1,0,0.2,0,0.3,0c0.5,0,0.8,0.2,0.8,0.7
		c0,0.2-0.1,0.4-0.3,0.5s-0.4,0.2-0.7,0.2c-0.2,0-0.6,0-1-0.1c-0.5-0.1-0.8-0.1-1-0.1c-0.4,0-0.8,0-1.2,0.1
		c-0.5,0.1-0.9,0.1-1.1,0.1c-0.6,0-0.8-0.2-0.8-0.7s0.2-0.7,0.7-0.7c0.1,0,0.3,0,0.5,0.1c0.2,0,0.4,0.1,0.5,0.1
		c0.3,0,0.5-0.4,0.6-1.3c0-0.1,0-0.7,0-1.8v-1.7c0-1.2,0-1.8,0-1.8c-0.1-0.9-0.3-1.3-0.6-1.3c-0.1,0-0.3,0-0.5,0.1
		c-0.2,0-0.4,0.1-0.5,0.1c-0.5,0-0.8-0.2-0.8-0.7s0.3-0.7,0.9-0.7c0.3,0,0.5,0,0.6,0c0.4,0.1,0.7,0.1,0.9,0.1c0.1,0,0.3,0,0.5-0.1
		c0.2,0,0.4-0.1,0.5-0.1c0.4,0,0.6,0.3,0.6,0.8c0,0.1,0,0.1,0,0.3c0,0.1,0,0.2,0,0.3s0,0.5,0,1.3C215.9,157.8,215.9,158.4,215.9,159
		z M214.8,153.5c-0.3,0-0.6-0.1-0.8-0.3s-0.3-0.5-0.3-0.8s0.1-0.6,0.3-0.8s0.5-0.3,0.8-0.3s0.6,0.1,0.8,0.3s0.3,0.5,0.3,0.8
		s-0.1,0.6-0.3,0.8S215.2,153.5,214.8,153.5z"/>
	<path d="M225.9,162.2v-1.3c0-0.6,0.3-0.9,0.8-0.9s0.7,0.3,0.7,1c0,1.5-0.2,2.6-0.6,3.2c-0.5,0.8-1.4,1.2-2.6,1.2
		c-1.1,0-1.9-0.4-2.4-1.1c-0.3-0.5-0.5-1.4-0.5-2.6v-5c0-0.3-0.1-0.4-0.4-0.4h-0.7c-0.2,0-0.4-0.1-0.6-0.2s-0.2-0.3-0.2-0.5
		s0.1-0.4,0.2-0.5s0.3-0.2,0.5-0.2h0.8c0.2,0,0.4-0.1,0.4-0.4v-2.2c0-0.5,0.3-0.8,0.8-0.8s0.8,0.3,0.8,0.8v2.2
		c0,0.2,0.1,0.3,0.4,0.3h2.3c0.5,0,0.8,0.2,0.8,0.7s-0.3,0.8-0.9,0.8h-2.3c-0.2,0-0.3,0.1-0.3,0.4v5.2c0,1.5,0.5,2.2,1.5,2.2
		C225.4,164,225.9,163.4,225.9,162.2z"/>
	<path d="M232.8,151.5l-0.1,4.1c0.6-0.5,1.1-0.9,1.5-1.1c0.5-0.2,1-0.3,1.6-0.3c1.2,0,2.2,0.3,2.9,1s1.1,1.6,1.1,2.7v3.5
		c0,0.8,0,1.3,0,1.4c0.1,0.7,0.2,1,0.5,1c0.1,0,0.3,0,0.5-0.1c0.1,0,0.2,0,0.3,0c0.5,0,0.8,0.2,0.8,0.7s-0.3,0.7-1,0.7
		c-0.2,0-0.4,0-0.8-0.1c-0.6-0.1-1.1-0.1-1.4-0.1c-0.4,0-0.6,0-0.8,0c-0.6,0.1-1,0.1-1.1,0.1c-0.3,0-0.5-0.1-0.6-0.2
		c-0.2-0.1-0.3-0.3-0.3-0.6c0-0.2,0.1-0.3,0.2-0.5s0.3-0.2,0.5-0.2s0.3,0,0.5,0.1c0.1,0,0.2,0.1,0.4,0.1c0.4,0,0.6-0.5,0.7-1.4
		c0-0.2,0-0.5,0-1v-0.9v-1.1c0-1.4-0.1-2.4-0.4-2.9c-0.4-0.7-1.1-1.1-2.1-1.1c-1.1,0-1.9,0.4-2.4,1.1c-0.4,0.5-0.5,1.4-0.5,2.5v1.5
		c0,0.1,0,0.2-0.1,0.4c0,0.2,0,0.3,0,0.4c0,0.8,0,1.3,0,1.4c0.1,0.7,0.3,1,0.6,1c0.1,0,0.3,0,0.5-0.1s0.4-0.1,0.5-0.1
		c0.5,0,0.7,0.2,0.7,0.7s-0.3,0.8-0.9,0.8c-0.2,0-0.5,0-0.9-0.1c-0.5-0.1-1-0.1-1.4-0.1c-0.2,0-0.6,0-1,0.1
		c-0.6,0.1-0.9,0.1-1.1,0.1c-0.6,0-0.9-0.3-0.9-0.8c0-0.4,0.3-0.6,0.8-0.6c0.2,0,0.3,0,0.4,0.1c0.2,0.1,0.4,0.1,0.5,0.1
		c0.2,0,0.4-0.2,0.5-0.6c0.1-0.4,0.1-1.3,0.1-2.6v-3.6c0-2.1,0-3.4-0.1-4s-0.3-0.8-0.6-0.8c-0.1,0-0.2,0-0.4,0.1
		c-0.2,0-0.4,0.1-0.5,0.1c-0.5,0-0.7-0.2-0.7-0.7c0-0.2,0.1-0.4,0.3-0.5s0.4-0.2,0.6-0.2c0.1,0,0.3,0,0.7,0.1c0.3,0,0.6,0,0.9,0
		c0.1,0,0.3,0,0.5-0.1c0.2,0,0.4-0.1,0.5-0.1C232.7,150.8,232.8,151,232.8,151.5L232.8,151.5z"/>
	<path d="M252.6,153.9c0-1-0.4-1.6-1.1-1.6c-0.2,0-0.3,0-0.4,0c-0.2,0-0.4,0.1-0.6,0.1c-0.2,0-0.3-0.1-0.5-0.2s-0.2-0.3-0.2-0.5
		c0-0.5,0.3-0.7,0.9-0.7c0,0,0.1,0,0.3,0c2.1,0.1,3.1,0.2,2.9,0.2h0.2l5-0.1c0.1,0,0.5,0,1.1-0.1c0.2,0,0.4,0,0.6,0
		c0.7,0,1.1,0.3,1.1,1c0,0.1,0,0.5-0.1,1.1c0,0.4,0,0.9,0,1.2c0,0.5,0,0.8,0,1c0,0.4,0.1,0.7,0.1,0.9c0,0.5-0.2,0.8-0.7,0.8
		s-0.7-0.4-0.7-1.1v-1.1c0-1.2-0.2-1.9-0.7-2.1c-0.4-0.2-1.3-0.2-2.8-0.2c-1,0-1.6,0-1.8,0.1c-0.6,0.2-0.9,0.6-0.9,1.3v0.9
		c0,0.1,0,0.3,0,0.5s0,0.3,0,0.4v0.3c0,0.6,0.1,0.9,0.4,1c0.1,0,0.3,0,0.5,0h0.8c0.9,0,1.3-0.3,1.3-0.9c0-0.2,0-0.4-0.1-0.7
		c0-0.3-0.1-0.5-0.1-0.7c0-0.6,0.2-0.8,0.7-0.8s0.7,0.3,0.7,0.9c0,0.1,0,0.5-0.1,1.3c-0.1,0.6-0.1,1.2-0.1,1.7c0,0.3,0,0.8,0.1,1.5
		c0,0.1,0,0.4,0.1,0.7c0,0.3,0.1,0.6,0.1,0.7c0,0.5-0.3,0.8-0.8,0.8s-0.7-0.3-0.7-0.9c0-0.2,0-0.4,0.1-0.7c0-0.3,0.1-0.5,0.1-0.7
		c0-0.6-0.4-0.9-1.2-0.9h-0.9c-0.4,0-0.7,0.1-0.7,0.2c-0.1,0.1-0.1,0.4-0.1,0.9v1.3c0,0.2,0,0.5,0,0.9c0,0.5,0,0.8,0,0.9
		c0,0.6,0.1,0.9,0.3,1s0.5,0.1,1.1,0.1h2.9c0.8,0,1.4-0.1,1.7-0.4c0.3-0.2,0.5-0.7,0.5-1.4c0-0.2,0-0.5,0-0.9s0-0.7,0-0.9
		c0-0.6,0.2-0.9,0.7-0.9s0.8,0.3,0.8,1c0,0.3,0,0.6,0,1.2c0,0.5,0,0.9,0,1.2c0,0.2,0,0.5,0,0.9s0,0.7,0,0.9c0,0.7-0.3,1-1,1
		c-0.2,0-0.4,0-0.7,0c-0.2,0-0.5,0-0.9,0c0.1,0-0.4,0-1.6,0s-2.2,0-3.1,0c-1.3,0-2.6,0-3.9,0.1c-0.1,0-0.1,0-0.2,0
		c-0.1,0-0.1,0-0.1,0c-0.6,0-0.9-0.3-0.9-0.8c0-0.4,0.2-0.7,0.7-0.7c0.1,0,0.3,0,0.6,0c0.2,0,0.3,0.1,0.4,0.1c0.7,0,1.1-0.5,1.1-1.6
		v-8.5H252.6z"/>
	<path d="M267.4,163l2.9-3.4l-2.9-3.5c-0.2-0.2-0.4-0.3-0.7-0.3c-0.1,0-0.2,0-0.3,0l-0.4,0.1c-0.1,0-0.2,0-0.3,0
		c-0.5,0-0.7-0.2-0.7-0.7s0.3-0.7,0.9-0.7h0.1c0,0,0.4,0,1,0.1c0.4,0.1,0.6,0.1,0.9,0.1c0.2,0,0.6,0,1-0.1c0.4,0,0.8-0.1,1-0.1
		c0.6,0,0.9,0.2,0.9,0.7c0,0.4-0.3,0.7-0.8,0.7c-0.1,0-0.2,0-0.3,0l-0.3-0.1h-0.1c-0.1,0-0.1,0-0.1,0c0,0.1,0.1,0.2,0.2,0.3l1.9,2.3
		l2-2.3c0.1-0.1,0.2-0.2,0.2-0.3c0,0,0,0-0.1,0s-0.2,0-0.3,0.1c-0.2,0-0.3,0.1-0.4,0.1c-0.5,0-0.7-0.2-0.7-0.7s0.3-0.7,0.9-0.7
		c0,0,0.3,0,1.1,0.1c0.3,0,0.6,0,1,0c0.3,0,0.7,0,1.1-0.1c0.4,0,0.7-0.1,0.8-0.1c0.6,0,0.9,0.2,0.9,0.7s-0.2,0.7-0.7,0.7
		c-0.1,0-0.3,0-0.5-0.1c-0.2,0-0.4-0.1-0.5-0.1c-0.3,0-0.8,0.3-1.4,1l-2.4,2.8l3.3,3.9c0.2,0.2,0.4,0.4,0.7,0.4c0.1,0,0.2,0,0.4,0
		c0.2,0,0.3,0,0.4,0c0.5,0,0.8,0.2,0.8,0.7s-0.3,0.7-0.9,0.7h-0.2l-0.8-0.1c-0.2,0-0.6,0-1,0s-0.8,0-1.1,0.1l-0.8,0.1h-0.2
		c-0.7,0-1-0.2-1-0.7s0.3-0.7,0.8-0.7c0.2,0,0.4,0,0.8,0.1h0.1c0.1,0,0.2-0.1,0.2-0.2c0,0,0-0.1-0.1-0.1l-0.1-0.1l-2.3-2.7l-2.4,2.7
		c-0.1,0.1-0.1,0.2-0.1,0.3s0.1,0.1,0.2,0.1s0.2,0,0.4,0c0.2,0,0.3,0,0.4,0c0.6,0,0.9,0.2,0.9,0.7c0,0.4-0.3,0.7-0.9,0.7h-0.3
		l-0.8-0.1c-0.4,0-0.8-0.1-1.1-0.1c-0.3,0-0.6,0-0.9,0.1c-0.5,0.1-0.8,0.1-1,0.1c-0.6,0-0.9-0.2-0.9-0.7s0.3-0.7,0.8-0.7
		c0.1,0,0.2,0,0.4,0c0.2,0,0.3,0,0.4,0C266.5,163.8,266.9,163.5,267.4,163z"/>
	<path d="M283.1,155.2v0.7c0.8-1.1,1.9-1.6,3.2-1.6c1.4,0,2.5,0.5,3.3,1.4s1.2,2.3,1.2,3.9c0,1.8-0.4,3.2-1.3,4.3s-2,1.6-3.5,1.6
		c-1.2,0-2.2-0.4-3-1.3v1.7c0,0.5,0,0.9,0,1c0.1,0.4,0.3,0.7,0.6,0.7c0.1,0,0.2,0,0.4-0.1s0.3-0.1,0.4-0.1c0.4,0,0.7,0.2,0.7,0.7
		s-0.3,0.7-0.9,0.7c-0.2,0-0.5,0-0.9-0.1c-0.3,0-0.8-0.1-1.4-0.1c-0.3,0-0.6,0-0.8,0c-0.6,0.1-0.9,0.1-1.1,0.1s-0.4-0.1-0.6-0.2
		c-0.2-0.1-0.3-0.3-0.3-0.5c0-0.4,0.2-0.7,0.7-0.7c0.1,0,0.2,0,0.4,0.1c0.2,0,0.4,0.1,0.5,0.1c0.3,0,0.4-0.1,0.5-0.4
		c0.1-0.3,0.1-1,0.1-2.3v-8.1c0-0.6-0.2-1-0.5-1c-0.1,0-0.2,0-0.4,0.1s-0.4,0.1-0.5,0.1c-0.5,0-0.8-0.2-0.8-0.7
		c0-0.4,0.3-0.7,0.9-0.7c0.2,0,0.3,0,0.5,0c0.3,0,0.6,0,0.8,0c0.1,0,0.3,0,0.5,0s0.4,0,0.5,0C282.9,154.6,283.1,154.8,283.1,155.2z
		 M283.4,157.8c-0.1,0.5-0.2,1.2-0.2,2c0,0.1,0,0.2,0,0.3s0,0.2,0,0.3c0,0.9,0.1,1.6,0.2,2c0.2,0.4,0.5,0.8,0.9,1.1
		c0.5,0.3,1,0.5,1.7,0.5c1,0,1.8-0.4,2.3-1.1c0.6-0.7,0.8-1.8,0.8-3.1c0-2.8-1-4.2-3-4.2c-0.7,0-1.3,0.2-1.8,0.6
		C283.9,156.6,283.5,157.1,283.4,157.8z"/>
	<path d="M296.7,155.2v0.6c0.7-1,1.7-1.5,2.9-1.5c1,0,1.8,0.3,2.4,0.8c0.6,0.6,0.9,1.3,0.9,2.1c0,0.6-0.2,1.1-0.5,1.5
		s-0.7,0.6-1.2,0.6c-0.3,0-0.6-0.1-0.8-0.3c-0.2-0.2-0.3-0.4-0.3-0.7c0-0.2,0.1-0.4,0.3-0.6c0.2-0.2,0.4-0.3,0.6-0.3
		c0,0,0.1,0,0.3,0.1c0.1-0.2,0.1-0.3,0.1-0.5c0-0.4-0.2-0.7-0.5-1c-0.4-0.3-0.8-0.4-1.3-0.4c-1.1,0-1.8,0.5-2.2,1.5
		c-0.2,0.6-0.3,1.5-0.3,2.7v1.4c0,0.9,0,1.5,0,1.6c0.1,0.8,0.3,1.2,0.7,1.2c0.2,0,0.4,0,0.6-0.1c0.2,0,0.3-0.1,0.4-0.1
		c0.4,0,0.7,0.2,0.7,0.7s-0.3,0.7-0.9,0.7h-0.1c-0.2,0-0.5,0-1-0.1s-0.7-0.1-1-0.1c-0.6,0-1,0-1.3,0l-1.2,0.1
		c-0.6,0-0.9-0.2-0.9-0.7c0-0.4,0.3-0.7,0.8-0.7c0.1,0,0.2,0,0.3,0l0.3,0.1c0.1,0,0.2,0,0.3,0c0.4,0,0.5-0.3,0.6-1v-0.9l-0.1-4.8
		c0-0.8-0.3-1.2-0.6-1.2c-0.1,0-0.3,0-0.5,0.1c-0.2,0-0.4,0.1-0.5,0.1c-0.5,0-0.7-0.2-0.7-0.7s0.3-0.7,0.9-0.7c0.1,0,0.3,0,0.6,0.1
		c0.3,0,0.5,0.1,0.6,0.1s0.3,0,0.5-0.1c0.1,0,0.2-0.1,0.4-0.1C296.5,154.6,296.7,154.8,296.7,155.2z"/>
	<path d="M314.4,158.9c0,0.5,0,0.9-0.1,1s-0.3,0.2-0.6,0.2H307c-0.2,0-0.3,0-0.4,0.1c-0.1,0-0.1,0.1-0.1,0.2c0,1,0.3,1.9,0.9,2.6
		s1.4,1,2.4,1c0.6,0,1.2-0.2,1.7-0.5s0.8-0.8,1-1.3l0.2-0.6c0.1-0.3,0.3-0.5,0.7-0.5c0.5,0,0.8,0.3,0.8,0.8c0,0.9-0.5,1.7-1.4,2.4
		s-2,1.1-3.2,1.1c-1.5,0-2.6-0.5-3.5-1.5s-1.3-2.3-1.3-4s0.5-3.1,1.4-4.2c0.9-1.1,2.1-1.6,3.6-1.6c1.3,0,2.4,0.4,3.3,1.3
		C314,156.4,314.4,157.6,314.4,158.9z M306.8,158.4c0,0.2,0.2,0.3,0.5,0.3h5c0.3,0,0.4-0.1,0.4-0.3c0-0.7-0.3-1.4-0.8-1.9
		c-0.6-0.5-1.2-0.8-2-0.8s-1.5,0.3-2.1,0.9C307.1,157,306.8,157.7,306.8,158.4z"/>
	<path d="M321.4,154.2c0.9,0,1.7,0.2,2.3,0.7l0,0c0-0.5,0.2-0.8,0.7-0.8s0.7,0.2,0.7,0.7c0,0.1,0,0.3,0,0.6s-0.1,0.6-0.1,0.8
		s0,0.4,0.1,0.7c0,0.3,0.1,0.6,0.1,0.7c0,0.5-0.2,0.8-0.7,0.8c-0.4,0-0.7-0.2-0.7-0.7V157c0-0.4-0.3-0.8-0.7-1.1s-1-0.5-1.6-0.5
		s-1.2,0.2-1.6,0.5s-0.7,0.7-0.7,1.2c0,0.9,0.6,1.4,1.8,1.6l1.2,0.2c2.4,0.3,3.6,1.3,3.6,3c0,1-0.4,1.8-1.2,2.4
		c-0.8,0.6-1.8,0.9-3,0.9s-2.2-0.3-3-1c0,0.1,0,0.3,0,0.4c0,0.5-0.2,0.8-0.7,0.8s-0.8-0.3-0.8-0.9c0,0.1,0-0.3,0.1-1.1
		c0-0.2,0-0.4,0-0.6c0-0.3,0-0.7-0.1-0.9c-0.1-0.3-0.1-0.5-0.1-0.7c0-0.5,0.2-0.7,0.7-0.7c0.3,0,0.5,0.1,0.6,0.2
		c0.1,0.1,0.1,0.5,0.1,1.1s0.3,1.1,0.9,1.5s1.4,0.6,2.4,0.6c0.7,0,1.3-0.2,1.7-0.5s0.7-0.8,0.7-1.3c0-1-0.8-1.5-2.3-1.7
		c-1.4-0.2-2.5-0.4-3.3-0.9c-0.8-0.4-1.1-1.1-1.1-2.2c0-1,0.4-1.8,1.1-2.4C319.3,154.5,320.3,154.2,321.4,154.2z"/>
	<path d="M332.8,154.2c0.9,0,1.7,0.2,2.3,0.7l0,0c0-0.5,0.2-0.8,0.7-0.8s0.7,0.2,0.7,0.7c0,0.1,0,0.3,0,0.6s-0.1,0.6-0.1,0.8
		s0,0.4,0.1,0.7c0,0.3,0.1,0.6,0.1,0.7c0,0.5-0.2,0.8-0.7,0.8c-0.4,0-0.7-0.2-0.7-0.7V157c0-0.4-0.3-0.8-0.7-1.1s-1-0.5-1.6-0.5
		s-1.2,0.2-1.6,0.5s-0.7,0.7-0.7,1.2c0,0.9,0.6,1.4,1.8,1.6l1.2,0.2c2.4,0.3,3.6,1.3,3.6,3c0,1-0.4,1.8-1.2,2.4
		c-0.8,0.6-1.8,0.9-3,0.9s-2.2-0.3-3-1c0,0.1,0,0.3,0,0.4c0,0.5-0.2,0.8-0.7,0.8s-0.8-0.3-0.8-0.9c0,0.1,0-0.3,0.1-1.1
		c0-0.2,0-0.4,0-0.6c0-0.3,0-0.7-0.1-0.9c-0.1-0.3-0.1-0.5-0.1-0.7c0-0.5,0.2-0.7,0.7-0.7c0.3,0,0.5,0.1,0.6,0.2
		c0.1,0.1,0.1,0.5,0.1,1.1s0.3,1.1,0.9,1.5s1.4,0.6,2.4,0.6c0.7,0,1.3-0.2,1.7-0.5s0.7-0.8,0.7-1.3c0-1-0.8-1.5-2.3-1.7
		c-1.4-0.2-2.5-0.4-3.3-0.9c-0.8-0.4-1.1-1.1-1.1-2.2c0-1,0.4-1.8,1.1-2.4C330.7,154.5,331.6,154.2,332.8,154.2z"/>
</g>
<circle cx="56.6" cy="159.7" r="1.6"/>
<circle cx="346.8" cy="159.7" r="1.6"/>
</svg>
