<?xml version="1.0" encoding="utf-8"?>
<!-- Generator: Adobe Illustrator 23.1.1, SVG Export Plug-In . SVG Version: 6.00 Build 0)  -->
<svg version="1.1" id="Layer_1" xmlns="http://www.w3.org/2000/svg" xmlns:xlink="http://www.w3.org/1999/xlink" x="0px" y="0px"
	 viewBox="0 0 406.9 183.6" style="enable-background:new 0 0 406.9 183.6;" xml:space="preserve">
<style type="text/css">
	.st0{fill:none;stroke:#36BEEF;stroke-miterlimit:10;}
	.st1{fill:#C6C6C5;}
	.st2{fill:#FFFFFF;stroke:#36BEEF;stroke-miterlimit:10;}
	.st3{fill:#FAA21B;}
	.st4{fill:#F8D41C;}
	.st5{fill:#BFBFBF;}
	.st6{fill:#A09F9F;}
	.st7{fill:#E87979;}
	.st8{fill:#F8EAC7;}
</style>
<g>
	<g>
		<line class="st0" x1="8.6" y1="58.3" x2="25.6" y2="58.3"/>
		<line class="st0" x1="8.6" y1="77.3" x2="25.6" y2="77.3"/>
		<line class="st0" x1="8.6" y1="96.3" x2="25.6" y2="96.3"/>
		<line class="st0" x1="8.6" y1="115.3" x2="25.6" y2="115.3"/>
		<line class="st0" x1="8.6" y1="134.3" x2="25.6" y2="134.3"/>
	</g>
	<g>
		<line class="st0" x1="36.2" y1="58.3" x2="396.8" y2="58.3"/>
		<line class="st0" x1="36.2" y1="77.3" x2="396.8" y2="77.3"/>
		<line class="st0" x1="36.2" y1="96.3" x2="396.8" y2="96.3"/>
		<line class="st0" x1="36.2" y1="115.3" x2="396.8" y2="115.3"/>
		<line class="st0" x1="36.2" y1="134.3" x2="396.8" y2="134.3"/>
	</g>
</g>
<g>
	<path d="M73.9,160.3c0,1.1,0.4,1.6,1.1,1.6c0.1,0,0.3,0,0.5-0.1c0.2,0,0.4-0.1,0.5-0.1c0.2,0,0.3,0.1,0.5,0.2
		c0.1,0.1,0.2,0.3,0.2,0.5c0,0.5-0.3,0.7-0.9,0.7c0,0-0.1,0-0.1,0c-0.1,0-0.1,0-0.1,0l-1-0.1c-0.4-0.1-0.8-0.1-1.3-0.1
		c-0.5,0-1,0-1.4,0.1l-1,0.1c0,0-0.1,0-0.1,0c-0.1,0-0.1,0-0.1,0c-0.6,0-0.9-0.2-0.9-0.7c0-0.4,0.2-0.7,0.7-0.7c0.1,0,0.3,0,0.5,0.1
		c0.2,0,0.4,0.1,0.5,0.1c0.7,0,1-0.5,1-1.6v-1.5V157v-1.8v-3.4c0-1-0.5-1.5-1.5-1.5H70c-1,0-1.5,0.5-1.5,1.5c0,0.4,0,0.6,0,0.7
		l0.1,0.8c0,0.1,0,0.3,0,0.5c0,0.9-0.3,1.3-0.8,1.3c-0.5,0-0.8-0.3-0.8-1c0-0.2,0-0.5,0-0.9c0-0.7,0.1-1.1,0.1-1.3
		c0-0.3,0-0.7,0-1.1c0-0.7-0.1-1.1-0.1-0.9c0-0.6,0.3-0.9,0.8-0.9c0.2,0,0.6,0,1.4,0.1c0.1,0,0.6,0,1.7,0.1h2.4c0.3,0,1,0,2.2,0
		c0.3,0,0.7,0,1.4-0.1c0.6,0,1-0.1,1.3-0.1c0.7,0,1,0.3,1,0.9v0c0,0.1,0,0.4-0.1,0.8s-0.1,0.8-0.1,1.2v0.2c0,0.2,0,0.5,0.1,1
		c0.1,0.6,0.1,1,0.1,1.1c0,0.6-0.3,0.9-0.8,0.9c-0.5,0-0.8-0.4-0.8-1.1c0-0.3,0-0.6,0.1-1.1s0.1-0.9,0.1-1.1c0-1-0.6-1.5-1.7-1.5
		h-0.6c-0.5,0-0.9,0.1-1.1,0.3c-0.2,0.2-0.4,0.6-0.4,1.1l-0.1,1.5V160.3z"/>
	<path d="M90.4,163.3c-1.1,0-1.9-0.5-2.1-1.5c-0.7,1-1.8,1.6-3.4,1.6c-1.1,0-2-0.3-2.7-0.8c-0.7-0.6-1-1.3-1-2.2
		c0-1.2,0.5-2,1.5-2.6c0.4-0.2,0.7-0.3,1-0.4c0.3-0.1,0.8-0.1,1.6-0.2c1.2-0.1,1.9-0.3,2.3-0.5s0.5-0.6,0.5-1.2c0-0.6-0.2-1-0.6-1.4
		s-1-0.5-1.7-0.5c-0.6,0-1.2,0.2-1.8,0.5c-0.2,0.1-0.3,0.3-0.3,0.4c0,0.1,0.1,0.1,0.2,0.2c0.2,0.1,0.3,0.4,0.3,0.7
		c0,0.3-0.1,0.5-0.3,0.7c-0.2,0.2-0.5,0.3-0.8,0.3c-0.4,0-0.7-0.1-0.9-0.4c-0.2-0.3-0.4-0.6-0.4-0.9c0-0.8,0.4-1.5,1.2-2
		c0.8-0.6,1.7-0.8,2.8-0.8c2.5,0,3.8,1.2,3.8,3.7v4.2c0,0.7,0,1.1,0,1.2c0.1,0.5,0.3,0.7,0.7,0.7c0.5,0,0.7-0.4,0.7-1.3v-1
		c0-0.4,0.2-0.7,0.6-0.7c0.5,0,0.7,0.3,0.7,1v0.1v1.2C92.5,162.7,91.8,163.3,90.4,163.3z M88.1,159.2v-1.5c-0.3,0.3-0.6,0.5-1,0.6
		c-0.3,0.1-1,0.2-1.8,0.3c-1.6,0.2-2.4,0.7-2.4,1.8c0,0.5,0.2,1,0.6,1.3c0.4,0.3,0.9,0.5,1.6,0.5c0.9,0,1.7-0.3,2.2-0.8
		C87.8,160.8,88.1,160.1,88.1,159.2z"/>
	<path d="M97.6,157.8l3.6-3.4c0.1-0.1,0.2-0.2,0.2-0.4s-0.1-0.2-0.3-0.2c-0.1,0-0.3,0-0.6,0.1c-0.3,0.1-0.5,0.1-0.6,0.1
		c-0.5,0-0.7-0.2-0.7-0.7c0-0.5,0.3-0.7,0.9-0.7c0.2,0,0.3,0,0.6,0c1,0.1,1.7,0.2,2.2,0.2c0.3,0,0.5,0,0.7,0l0.9-0.1
		c0.2,0,0.4,0,0.5,0c0.7,0,1,0.2,1,0.7c0,0.5-0.2,0.7-0.7,0.7c-0.1,0-0.3,0-0.5-0.1c-0.2,0-0.4-0.1-0.5-0.1c-0.4,0-0.7,0.2-1.1,0.5
		l-2.2,2c-0.2,0.1-0.2,0.3-0.2,0.3c0,0.1,0.1,0.2,0.2,0.3l2.7,3.5c0.7,0.9,1.2,1.3,1.5,1.3c0.1,0,0.2,0,0.3-0.1
		c0.2,0,0.3-0.1,0.4-0.1c0.5,0,0.8,0.2,0.8,0.7c0,0.5-0.3,0.7-1,0.7c-0.3,0-0.6,0-1.1-0.1c-0.5-0.1-0.9-0.1-1.1-0.1
		c-0.2,0-0.5,0-1,0.1c-0.4,0.1-0.7,0.1-1,0.1c-0.5,0-0.8-0.2-0.8-0.7c0-0.4,0.3-0.7,0.8-0.7c0.1,0,0.3,0,0.3,0
		c0.3,0.1,0.4,0.1,0.5,0.1c0.1,0,0.2,0,0.2-0.1c0,0,0,0,0-0.1c0,0,0,0,0,0l-0.2-0.3l-0.3-0.4l-2.1-2.8c-0.1-0.2-0.3-0.3-0.3-0.3
		c-0.1,0-0.2,0.1-0.3,0.2l-1.6,1.4v0.5c0,0.7,0,1.1,0,1.1c0.1,0.5,0.3,0.7,0.6,0.7c0.1,0,0.3,0,0.4,0c0.1,0,0.2,0,0.4,0
		c0.5,0,0.7,0.2,0.7,0.7s-0.3,0.7-0.8,0.7c-0.2,0-0.6,0-1.1-0.1c-0.5-0.1-0.9-0.1-1.1-0.1c-0.3,0-0.7,0-1.1,0.1
		c-0.5,0.1-0.9,0.1-1.1,0.1c-0.5,0-0.8-0.2-0.8-0.7s0.3-0.7,0.8-0.7c0.1,0,0.2,0,0.4,0c0.2,0,0.4,0.1,0.5,0.1c0.3,0,0.5-0.3,0.6-0.8
		l0.1-0.8v-8.5c0-0.8-0.1-1.2-0.1-1.4s-0.2-0.3-0.4-0.3c-0.1,0-0.2,0-0.4,0c-0.2,0.1-0.4,0.1-0.6,0.1c-0.5,0-0.7-0.2-0.7-0.7
		c0-0.5,0.3-0.7,0.8-0.7c0.3,0,0.5,0,0.6,0c0.4,0,0.6,0.1,0.7,0.1c0.1,0,0.3,0,0.5,0s0.4,0,0.5,0h0.1c0.5,0,0.7,0.3,0.7,0.9V157.8z"
		/>
	<path d="M117.5,156.9c0,0.5,0,0.9-0.1,1c-0.1,0.1-0.3,0.2-0.6,0.2h-6.7c-0.2,0-0.3,0-0.4,0.1c-0.1,0-0.1,0.1-0.1,0.2
		c0,1,0.3,1.9,0.9,2.6c0.6,0.7,1.4,1,2.4,1c0.6,0,1.2-0.2,1.7-0.5s0.8-0.8,1-1.3l0.2-0.6c0.1-0.3,0.3-0.5,0.7-0.5
		c0.5,0,0.8,0.3,0.8,0.8c0,0.9-0.5,1.7-1.4,2.4c-0.9,0.7-2,1.1-3.1,1.1c-1.5,0-2.6-0.5-3.5-1.5c-0.9-1-1.3-2.3-1.3-4
		c0-1.7,0.5-3.1,1.4-4.2c0.9-1.1,2.1-1.6,3.6-1.6c1.3,0,2.4,0.4,3.3,1.3S117.5,155.5,117.5,156.9z M109.9,156.3
		c0,0.2,0.2,0.3,0.5,0.3h5c0.3,0,0.4-0.1,0.4-0.3c0-0.7-0.3-1.4-0.8-1.9c-0.6-0.5-1.2-0.8-2-0.8c-0.8,0-1.5,0.3-2.1,0.9
		C110.2,155,109.9,155.6,109.9,156.3z"/>
	<path d="M131.9,149.9l5.6,11.7v-8.5c0-1.1,0-1.7,0-1.8c-0.1-0.7-0.5-1.1-1.1-1.1c-0.1,0-0.3,0-0.5,0.1c-0.2,0-0.4,0.1-0.5,0.1
		c-0.2,0-0.3-0.1-0.5-0.2c-0.1-0.1-0.2-0.3-0.2-0.5c0-0.5,0.3-0.8,0.9-0.8c0.1,0,0.2,0,0.3,0l0.9,0.1c0.4,0.1,0.8,0.1,1.2,0.1
		c0.4,0,0.8,0,1.4-0.1c0.2,0,0.5-0.1,0.7-0.1c0,0,0.1,0,0.1,0c0.1,0,0.1,0,0.1,0c0.6,0,0.9,0.2,0.9,0.7c0,0.5-0.3,0.7-0.9,0.7
		c-0.1,0-0.2,0-0.2,0h-0.2c-0.4,0-0.7,0.1-0.8,0.3c-0.1,0.2-0.2,0.6-0.2,1.2v1.2v2.1v5.6c0,1-0.1,1.6-0.3,2
		c-0.2,0.4-0.6,0.6-1.1,0.6c-0.7,0-1.3-0.5-1.8-1.5l-5.5-11.4v9.8c0,1,0.4,1.6,1.1,1.6c0.1,0,0.3,0,0.5,0c0.2,0,0.4,0,0.5,0
		c0.4,0,0.7,0.2,0.7,0.7c0,0.5-0.3,0.7-0.9,0.7c0,0-0.1,0-0.1,0c-0.1,0-0.1,0-0.1,0L131,163c-0.5-0.1-0.9-0.1-1.3-0.1
		c-0.4,0-0.8,0-1.4,0.1l-1,0.1c0,0-0.1,0-0.1,0c-0.1,0-0.1,0-0.2,0c-0.6,0-0.9-0.2-0.9-0.7c0-0.4,0.2-0.7,0.7-0.7c0.1,0,0.3,0,0.6,0
		c0.2,0,0.3,0.1,0.4,0.1c0.7,0,1.1-0.5,1.1-1.6v-1.5V157v-1.8v-3.3c0-1-0.4-1.6-1.1-1.6c-0.1,0-0.2,0-0.4,0c-0.3,0-0.5,0.1-0.6,0.1
		c-0.4,0-0.7-0.2-0.7-0.7c0-0.5,0.3-0.7,0.9-0.7c0.1,0,0.2,0,0.3,0c0.7,0.1,1.2,0.1,1.6,0.1c0.2,0,0.5,0,0.9-0.1s0.7-0.1,0.9-0.1
		c0.4,0,0.7,0.1,0.9,0.4L131.9,149.9z"/>
	<path d="M147.7,163.4c-1.5,0-2.6-0.5-3.5-1.5c-0.9-1-1.3-2.4-1.3-4.1s0.4-3.1,1.3-4.1c0.9-1,2.1-1.5,3.6-1.5c1.5,0,2.7,0.5,3.6,1.5
		c0.9,1,1.3,2.3,1.3,4.1c0,1.7-0.5,3.1-1.4,4.1C150.4,162.9,149.2,163.4,147.7,163.4z M147.8,153.6c-1,0-1.8,0.3-2.3,1
		c-0.6,0.7-0.9,1.7-0.9,2.9v0.3c0,1.3,0.3,2.3,0.8,3.1c0.6,0.7,1.3,1.1,2.3,1.1c1,0,1.8-0.4,2.4-1.1c0.6-0.7,0.9-1.8,0.9-3.1
		C151,155,149.9,153.6,147.8,153.6z"/>
	<path d="M161.2,160.2v-1.3c0-0.6,0.3-0.9,0.8-0.9c0.5,0,0.7,0.3,0.7,1c0,1.5-0.2,2.6-0.6,3.2c-0.5,0.8-1.4,1.2-2.6,1.2
		c-1.1,0-1.9-0.4-2.4-1.1c-0.3-0.5-0.5-1.4-0.5-2.6v-5c0-0.3-0.1-0.4-0.4-0.4h-0.7c-0.2,0-0.4-0.1-0.6-0.2s-0.2-0.3-0.2-0.5
		c0-0.2,0.1-0.4,0.2-0.5s0.3-0.2,0.5-0.2h0.8c0.2,0,0.4-0.1,0.4-0.4v-2.2c0-0.5,0.3-0.8,0.8-0.8c0.5,0,0.8,0.3,0.8,0.8v2.2
		c0,0.2,0.1,0.3,0.4,0.3h2.3c0.5,0,0.8,0.2,0.8,0.7c0,0.5-0.3,0.8-0.9,0.8h-2.3c-0.2,0-0.3,0.1-0.3,0.4v5.2c0,1.5,0.5,2.2,1.5,2.2
		C160.7,162,161.2,161.4,161.2,160.2z"/>
	<path d="M174.4,156.9c0,0.5,0,0.9-0.1,1c-0.1,0.1-0.3,0.2-0.6,0.2H167c-0.2,0-0.3,0-0.4,0.1c-0.1,0-0.1,0.1-0.1,0.2
		c0,1,0.3,1.9,0.9,2.6c0.6,0.7,1.4,1,2.4,1c0.6,0,1.2-0.2,1.7-0.5s0.8-0.8,1-1.3l0.2-0.6c0.1-0.3,0.3-0.5,0.7-0.5
		c0.5,0,0.8,0.3,0.8,0.8c0,0.9-0.5,1.7-1.4,2.4c-0.9,0.7-2,1.1-3.1,1.1c-1.5,0-2.6-0.5-3.5-1.5c-0.9-1-1.3-2.3-1.3-4
		c0-1.7,0.5-3.1,1.4-4.2c0.9-1.1,2.1-1.6,3.6-1.6c1.3,0,2.4,0.4,3.3,1.3S174.4,155.5,174.4,156.9z M166.7,156.3
		c0,0.2,0.2,0.3,0.5,0.3h5c0.3,0,0.4-0.1,0.4-0.3c0-0.7-0.3-1.4-0.8-1.9c-0.6-0.5-1.2-0.8-2-0.8c-0.8,0-1.5,0.3-2.1,0.9
		C167.1,155,166.7,155.6,166.7,156.3z"/>
	<path d="M181.4,152.2c0.9,0,1.7,0.2,2.3,0.7v-0.1c0-0.5,0.2-0.8,0.7-0.8c0.5,0,0.7,0.2,0.7,0.7c0,0.1,0,0.3,0,0.6
		c0,0.3-0.1,0.6-0.1,0.8c0,0.2,0,0.4,0.1,0.7c0,0.3,0.1,0.6,0.1,0.7c0,0.5-0.2,0.8-0.7,0.8c-0.4,0-0.7-0.2-0.7-0.7v-0.7
		c0-0.4-0.3-0.8-0.7-1.1c-0.5-0.3-1-0.5-1.6-0.5c-0.6,0-1.2,0.2-1.6,0.5s-0.7,0.7-0.7,1.2c0,0.9,0.6,1.4,1.8,1.6l1.2,0.2
		c2.4,0.3,3.6,1.3,3.6,3c0,1-0.4,1.8-1.2,2.4c-0.8,0.6-1.8,0.9-3,0.9c-1.2,0-2.2-0.3-3-1c0,0.1,0,0.3,0,0.4c0,0.5-0.2,0.8-0.7,0.8
		c-0.5,0-0.8-0.3-0.8-0.9c0,0.1,0-0.3,0.1-1.1c0-0.2,0-0.4,0-0.6c0-0.3,0-0.7-0.1-0.9s-0.1-0.5-0.1-0.7c0-0.5,0.2-0.7,0.7-0.7
		c0.3,0,0.5,0.1,0.6,0.2s0.1,0.5,0.1,1.1c0,0.6,0.3,1.1,0.9,1.5s1.4,0.6,2.4,0.6c0.7,0,1.3-0.2,1.7-0.5c0.4-0.3,0.7-0.8,0.7-1.3
		c0-1-0.8-1.5-2.3-1.7c-1.4-0.2-2.5-0.4-3.3-0.9c-0.8-0.4-1.1-1.1-1.1-2.2c0-1,0.4-1.8,1.1-2.4C179.2,152.5,180.2,152.2,181.4,152.2
		z"/>
	<path d="M197.6,155.5l1.5,6.4l1.6-7.4c0.2-0.8,0.4-1.3,0.6-1.6c0.2-0.3,0.5-0.4,0.9-0.4c0.4,0,0.8,0.1,1,0.4
		c0.2,0.3,0.4,0.8,0.6,1.6l1.6,7.4l1.6-6.4c0.1-0.4,0.1-0.8,0.1-1.1v0c0-0.4-0.2-0.6-0.5-0.6c-0.1,0-0.3,0-0.5,0.1
		c-0.2,0-0.4,0.1-0.5,0.1c-0.5,0-0.8-0.2-0.8-0.7c0-0.5,0.3-0.7,1-0.7c0.1,0,0.2,0,0.3,0l0.9,0.1c0.2,0,0.6,0,1,0
		c0.4,0,0.7,0,1.1-0.1l0.7-0.1c0.1,0,0.1,0,0.2,0c0.6,0,0.9,0.2,0.9,0.7c0,0.5-0.2,0.7-0.7,0.7c-0.2,0-0.3,0-0.4-0.1
		c-0.2,0-0.4-0.1-0.4-0.1c-0.4,0-0.8,0.8-1.2,2.3l-1.4,5.4c-0.2,0.7-0.4,1.1-0.6,1.4c-0.2,0.3-0.5,0.4-0.9,0.4
		c-0.7,0-1.2-0.6-1.5-1.8l-1.6-7.5l-1.6,7.3c-0.2,0.7-0.4,1.2-0.6,1.5s-0.6,0.4-1,0.4c-0.7,0-1.1-0.4-1.3-1.3l-2-7.6
		c-0.1-0.4-0.3-0.7-0.6-0.7c-0.1,0-0.2,0-0.4,0.1c-0.2,0-0.4,0.1-0.5,0.1c-0.5,0-0.7-0.2-0.7-0.7c0-0.5,0.3-0.7,0.9-0.7
		c0.1,0,0.2,0,0.2,0l0.9,0.1c0.2,0,0.5,0,0.8,0c0.4,0,0.8,0,1.3-0.1c0.6-0.1,1-0.1,1.1-0.1c0.6,0,0.9,0.2,0.9,0.7
		c0,0.5-0.3,0.7-0.8,0.7c-0.1,0-0.3,0-0.5,0c-0.2-0.1-0.4-0.1-0.5-0.1c-0.4,0-0.5,0.2-0.5,0.6C197.4,154.7,197.5,155.1,197.6,155.5z
		"/>
	<path d="M215.9,157v2.7c0,0.7,0,1.1,0,1.2c0.1,0.6,0.3,0.9,0.6,0.9c0.1,0,0.2,0,0.5-0.1c0.1,0,0.2,0,0.3,0c0.5,0,0.8,0.2,0.8,0.7
		c0,0.2-0.1,0.4-0.3,0.5c-0.2,0.1-0.4,0.2-0.7,0.2c-0.2,0-0.6,0-1-0.1c-0.5-0.1-0.8-0.1-1-0.1c-0.4,0-0.8,0-1.2,0.1
		c-0.5,0.1-0.9,0.1-1.1,0.1c-0.6,0-0.8-0.2-0.8-0.7c0-0.5,0.2-0.7,0.7-0.7c0.1,0,0.3,0,0.5,0.1c0.2,0,0.4,0.1,0.5,0.1
		c0.3,0,0.5-0.4,0.6-1.3c0-0.1,0-0.7,0-1.8V157c0-1.2,0-1.8,0-1.8c-0.1-0.9-0.3-1.3-0.6-1.3c-0.1,0-0.3,0-0.5,0.1
		c-0.2,0-0.4,0.1-0.5,0.1c-0.5,0-0.8-0.2-0.8-0.7c0-0.5,0.3-0.7,0.9-0.7c0.3,0,0.5,0,0.6,0c0.4,0.1,0.7,0.1,0.9,0.1
		c0.1,0,0.3,0,0.5-0.1c0.2,0,0.4-0.1,0.5-0.1c0.4,0,0.6,0.3,0.6,0.8c0,0.1,0,0.1,0,0.3c0,0.1,0,0.2,0,0.3c0,0.1,0,0.5,0,1.3
		C215.9,155.8,215.9,156.4,215.9,157z M214.8,151.5c-0.3,0-0.6-0.1-0.8-0.3s-0.3-0.5-0.3-0.8s0.1-0.6,0.3-0.8s0.5-0.3,0.8-0.3
		c0.3,0,0.6,0.1,0.8,0.3s0.3,0.5,0.3,0.8s-0.1,0.6-0.3,0.8S215.2,151.5,214.8,151.5z"/>
	<path d="M225.9,160.2v-1.3c0-0.6,0.3-0.9,0.8-0.9c0.5,0,0.7,0.3,0.7,1c0,1.5-0.2,2.6-0.6,3.2c-0.5,0.8-1.4,1.2-2.6,1.2
		c-1.1,0-1.9-0.4-2.4-1.1c-0.3-0.5-0.5-1.4-0.5-2.6v-5c0-0.3-0.1-0.4-0.4-0.4h-0.7c-0.2,0-0.4-0.1-0.6-0.2s-0.2-0.3-0.2-0.5
		c0-0.2,0.1-0.4,0.2-0.5s0.3-0.2,0.5-0.2h0.8c0.2,0,0.4-0.1,0.4-0.4v-2.2c0-0.5,0.3-0.8,0.8-0.8c0.5,0,0.8,0.3,0.8,0.8v2.2
		c0,0.2,0.1,0.3,0.4,0.3h2.3c0.5,0,0.8,0.2,0.8,0.7c0,0.5-0.3,0.8-0.9,0.8h-2.3c-0.2,0-0.3,0.1-0.3,0.4v5.2c0,1.5,0.5,2.2,1.5,2.2
		C225.4,162,225.9,161.4,225.9,160.2z"/>
	<path d="M232.8,149.5l-0.1,4.1c0.6-0.5,1.1-0.9,1.5-1.1c0.5-0.2,1-0.3,1.6-0.3c1.2,0,2.2,0.3,2.9,1c0.7,0.7,1.1,1.6,1.1,2.7v3.5
		c0,0.8,0,1.3,0,1.4c0.1,0.7,0.2,1,0.5,1c0.1,0,0.3,0,0.5-0.1c0.1,0,0.2,0,0.3,0c0.5,0,0.8,0.2,0.8,0.7s-0.3,0.7-1,0.7
		c-0.2,0-0.4,0-0.8-0.1c-0.6-0.1-1.1-0.1-1.4-0.1c-0.4,0-0.6,0-0.8,0c-0.6,0.1-1,0.1-1.1,0.1c-0.3,0-0.5-0.1-0.6-0.2
		c-0.2-0.1-0.3-0.3-0.3-0.6c0-0.2,0.1-0.3,0.2-0.5s0.3-0.2,0.5-0.2c0.2,0,0.3,0,0.5,0.1c0.1,0,0.2,0.1,0.4,0.1
		c0.4,0,0.6-0.5,0.7-1.4c0-0.2,0-0.5,0-1v-0.9v-1.1c0-1.4-0.1-2.4-0.4-2.9c-0.4-0.7-1.1-1.1-2.1-1.1c-1.1,0-1.9,0.4-2.4,1.1
		c-0.4,0.5-0.5,1.4-0.5,2.5v1.5c0,0.1,0,0.2-0.1,0.4c0,0.2,0,0.3,0,0.4c0,0.8,0,1.3,0,1.4c0.1,0.7,0.3,1,0.6,1c0.1,0,0.3,0,0.5-0.1
		c0.2-0.1,0.4-0.1,0.5-0.1c0.5,0,0.7,0.2,0.7,0.7c0,0.5-0.3,0.8-0.9,0.8c-0.2,0-0.5,0-0.9-0.1c-0.5-0.1-1-0.1-1.4-0.1
		c-0.2,0-0.6,0-1,0.1c-0.6,0.1-0.9,0.1-1.1,0.1c-0.6,0-0.9-0.3-0.9-0.8c0-0.4,0.3-0.6,0.8-0.6c0.2,0,0.3,0,0.4,0.1
		c0.2,0.1,0.4,0.1,0.5,0.1c0.2,0,0.4-0.2,0.5-0.6c0.1-0.4,0.1-1.3,0.1-2.6v-3.8c0-2.1,0-3.4-0.1-4s-0.3-0.8-0.6-0.8
		c-0.1,0-0.2,0-0.4,0.1c-0.2,0-0.4,0.1-0.5,0.1c-0.5,0-0.7-0.2-0.7-0.7c0-0.2,0.1-0.4,0.3-0.5c0.2-0.1,0.4-0.2,0.6-0.2
		c0.1,0,0.3,0,0.7,0.1c0.3,0,0.6,0,0.9,0c0.1,0,0.3,0,0.5-0.1c0.2,0,0.4-0.1,0.5-0.1C232.7,148.8,232.8,149,232.8,149.5L232.8,149.5
		z"/>
	<path d="M252.6,151.9c0-1-0.4-1.6-1.1-1.6c-0.2,0-0.3,0-0.4,0c-0.2,0-0.4,0.1-0.6,0.1c-0.2,0-0.3-0.1-0.5-0.2s-0.2-0.3-0.2-0.5
		c0-0.5,0.3-0.7,0.9-0.7c0,0,0.1,0,0.3,0c2.1,0.1,3.1,0.2,2.9,0.2h0.2l5-0.1c0.1,0,0.5,0,1.1-0.1c0.2,0,0.4,0,0.6,0
		c0.7,0,1.1,0.3,1.1,1c0,0.1,0,0.5-0.1,1.1c0,0.4,0,0.9,0,1.2c0,0.5,0,0.8,0,1c0,0.4,0.1,0.7,0.1,0.9c0,0.5-0.2,0.8-0.7,0.8
		c-0.5,0-0.7-0.4-0.7-1.1v-1.1c0-1.2-0.2-1.9-0.7-2.1c-0.4-0.2-1.3-0.2-2.8-0.2c-1,0-1.6,0-1.8,0.1c-0.6,0.2-0.9,0.6-0.9,1.3v0.9
		c0,0.1,0,0.3,0,0.5c0,0.2,0,0.3,0,0.4v0.3c0,0.6,0.1,0.9,0.4,1c0.1,0,0.3,0,0.5,0h0.8c0.9,0,1.3-0.3,1.3-0.9c0-0.2,0-0.4-0.1-0.7
		c0-0.3-0.1-0.5-0.1-0.7c0-0.6,0.2-0.8,0.7-0.8s0.7,0.3,0.7,0.9c0,0.1,0,0.5-0.1,1.3c-0.1,0.6-0.1,1.2-0.1,1.7c0,0.3,0,0.8,0.1,1.5
		c0,0.1,0,0.4,0.1,0.7c0,0.3,0.1,0.6,0.1,0.7c0,0.5-0.3,0.8-0.8,0.8c-0.5,0-0.7-0.3-0.7-0.9c0-0.2,0-0.4,0.1-0.7
		c0-0.3,0.1-0.5,0.1-0.7c0-0.6-0.4-0.9-1.2-0.9h-0.9c-0.4,0-0.7,0.1-0.7,0.2c-0.1,0.1-0.1,0.4-0.1,0.9v1.3c0,0.2,0,0.5,0,0.9
		c0,0.5,0,0.8,0,0.9c0,0.6,0.1,0.9,0.3,1c0.2,0.1,0.5,0.1,1.1,0.1h2.9c0.8,0,1.4-0.1,1.7-0.4c0.3-0.2,0.5-0.7,0.5-1.4
		c0-0.2,0-0.5,0-0.9c0-0.4,0-0.7,0-0.9c0-0.6,0.2-0.9,0.7-0.9c0.5,0,0.8,0.3,0.8,1c0,0.3,0,0.6,0,1.2c0,0.5,0,0.9,0,1.2
		c0,0.2,0,0.5,0,0.9c0,0.4,0,0.7,0,0.9c0,0.7-0.3,1-1,1c-0.2,0-0.4,0-0.7,0c-0.2,0-0.5,0-0.9,0c0.1,0-0.4,0-1.6,0
		c-1.2,0-2.2,0-3.1,0c-1.3,0-2.6,0-3.9,0.1c-0.1,0-0.1,0-0.2,0c-0.1,0-0.1,0-0.1,0c-0.6,0-0.9-0.3-0.9-0.8c0-0.4,0.2-0.7,0.7-0.7
		c0.1,0,0.3,0,0.6,0c0.2,0,0.3,0.1,0.4,0.1c0.7,0,1.1-0.5,1.1-1.6V151.9z"/>
	<path d="M267.4,161l2.9-3.4l-2.9-3.5c-0.2-0.2-0.4-0.3-0.7-0.3c-0.1,0-0.2,0-0.3,0l-0.4,0.1c-0.1,0-0.2,0-0.3,0
		c-0.5,0-0.7-0.2-0.7-0.7c0-0.5,0.3-0.7,0.9-0.7h0.1c0,0,0.4,0,1,0.1c0.4,0.1,0.6,0.1,0.9,0.1c0.2,0,0.6,0,1-0.1
		c0.4,0,0.8-0.1,1-0.1c0.6,0,0.9,0.2,0.9,0.7c0,0.4-0.3,0.7-0.8,0.7c-0.1,0-0.2,0-0.3,0l-0.3-0.1h-0.1c-0.1,0-0.1,0-0.1,0
		c0,0.1,0.1,0.2,0.2,0.3l1.9,2.3l2-2.3c0.1-0.1,0.2-0.2,0.2-0.3c0,0,0,0-0.1,0c-0.1,0-0.2,0-0.3,0.1c-0.2,0-0.3,0.1-0.4,0.1
		c-0.5,0-0.7-0.2-0.7-0.7c0-0.5,0.3-0.7,0.9-0.7c0,0,0.3,0,1.1,0.1c0.3,0,0.6,0,1,0c0.3,0,0.7,0,1.1-0.1c0.4,0,0.7-0.1,0.8-0.1
		c0.6,0,0.9,0.2,0.9,0.7c0,0.5-0.2,0.7-0.7,0.7c-0.1,0-0.3,0-0.5-0.1c-0.2,0-0.4-0.1-0.5-0.1c-0.3,0-0.8,0.3-1.4,1l-2.4,2.8l3.3,3.9
		c0.2,0.2,0.4,0.4,0.7,0.4c0.1,0,0.2,0,0.4,0c0.2,0,0.3,0,0.4,0c0.5,0,0.8,0.2,0.8,0.7c0,0.5-0.3,0.7-0.9,0.7h-0.2l-0.8-0.1
		c-0.2,0-0.6,0-1,0c-0.4,0-0.8,0-1.1,0.1l-0.8,0.1h-0.2c-0.7,0-1-0.2-1-0.7c0-0.5,0.3-0.7,0.8-0.7c0.2,0,0.4,0,0.8,0.1
		c0,0,0.1,0,0.1,0c0.1,0,0.2-0.1,0.2-0.2c0,0,0-0.1-0.1-0.1l-0.1-0.1l-2.3-2.7l-2.4,2.7c-0.1,0.1-0.1,0.2-0.1,0.3
		c0,0.1,0.1,0.1,0.2,0.1c0.1,0,0.2,0,0.4,0c0.2,0,0.3,0,0.4,0c0.6,0,0.9,0.2,0.9,0.7c0,0.4-0.3,0.7-0.9,0.7h-0.3l-0.8-0.1
		c-0.4,0-0.8-0.1-1.1-0.1c-0.3,0-0.6,0-0.9,0.1c-0.5,0.1-0.8,0.1-1,0.1c-0.6,0-0.9-0.2-0.9-0.7c0-0.5,0.3-0.7,0.8-0.7
		c0.1,0,0.2,0,0.4,0c0.2,0,0.3,0,0.4,0C266.5,161.8,266.9,161.5,267.4,161z"/>
	<path d="M283.1,153.2v0.7c0.8-1.1,1.9-1.6,3.2-1.6c1.4,0,2.5,0.5,3.3,1.4s1.2,2.3,1.2,3.9c0,1.8-0.4,3.2-1.3,4.3
		c-0.9,1.1-2,1.6-3.5,1.6c-1.2,0-2.2-0.4-3-1.3v1.7c0,0.5,0,0.9,0,1c0.1,0.4,0.3,0.7,0.6,0.7c0.1,0,0.2,0,0.4-0.1s0.3-0.1,0.4-0.1
		c0.4,0,0.7,0.2,0.7,0.7c0,0.5-0.3,0.7-0.9,0.7c-0.2,0-0.5,0-0.9-0.1c-0.3,0-0.8-0.1-1.4-0.1c-0.3,0-0.6,0-0.8,0
		c-0.6,0.1-0.9,0.1-1.1,0.1c-0.2,0-0.4-0.1-0.6-0.2c-0.2-0.1-0.3-0.3-0.3-0.5c0-0.4,0.2-0.7,0.7-0.7c0.1,0,0.2,0,0.4,0.1
		c0.2,0,0.4,0.1,0.5,0.1c0.3,0,0.4-0.1,0.5-0.4c0.1-0.3,0.1-1,0.1-2.3v-8.1c0-0.6-0.2-1-0.5-1c-0.1,0-0.2,0-0.4,0.1
		s-0.4,0.1-0.5,0.1c-0.5,0-0.8-0.2-0.8-0.7c0-0.4,0.3-0.7,0.9-0.7c0.2,0,0.3,0,0.5,0c0.3,0,0.6,0,0.8,0c0.1,0,0.3,0,0.5,0
		c0.2,0,0.4,0,0.5,0C282.9,152.6,283.1,152.8,283.1,153.2z M283.4,155.7c-0.1,0.5-0.2,1.2-0.2,2c0,0.1,0,0.2,0,0.3
		c0,0.1,0,0.2,0,0.3c0,0.9,0.1,1.6,0.2,2c0.2,0.4,0.5,0.8,0.9,1.1c0.5,0.3,1,0.5,1.7,0.5c1,0,1.8-0.4,2.3-1.1
		c0.6-0.7,0.8-1.8,0.8-3.1c0-2.8-1-4.2-3-4.2c-0.7,0-1.3,0.2-1.8,0.6C283.9,154.6,283.5,155.1,283.4,155.7z"/>
	<path d="M296.7,153.2v0.6c0.7-1,1.7-1.5,2.9-1.5c1,0,1.8,0.3,2.4,0.8c0.6,0.6,0.9,1.3,0.9,2.1c0,0.6-0.2,1.1-0.5,1.5
		c-0.3,0.4-0.7,0.6-1.2,0.6c-0.3,0-0.6-0.1-0.8-0.3c-0.2-0.2-0.3-0.4-0.3-0.7c0-0.2,0.1-0.4,0.3-0.6c0.2-0.2,0.4-0.3,0.6-0.3
		c0,0,0.1,0,0.3,0.1c0.1-0.2,0.1-0.3,0.1-0.5c0-0.4-0.2-0.7-0.5-1c-0.4-0.3-0.8-0.4-1.3-0.4c-1.1,0-1.8,0.5-2.2,1.5
		c-0.2,0.6-0.3,1.5-0.3,2.7v1.4c0,0.9,0,1.5,0,1.6c0.1,0.8,0.3,1.2,0.7,1.2c0.2,0,0.4,0,0.6-0.1c0.2,0,0.3-0.1,0.4-0.1
		c0.4,0,0.7,0.2,0.7,0.7c0,0.5-0.3,0.7-0.9,0.7h-0.1c-0.2,0-0.5,0-1-0.1s-0.7-0.1-1-0.1c-0.6,0-1,0-1.3,0l-1.2,0.1
		c-0.6,0-0.9-0.2-0.9-0.7c0-0.4,0.3-0.7,0.8-0.7c0.1,0,0.2,0,0.3,0l0.3,0.1c0.1,0,0.2,0,0.3,0c0.4,0,0.5-0.3,0.6-1v-1.1l-0.1-4.8
		c0-0.8-0.3-1.2-0.6-1.2c-0.1,0-0.3,0-0.5,0.1c-0.2,0-0.4,0.1-0.5,0.1c-0.5,0-0.7-0.2-0.7-0.7c0-0.5,0.3-0.7,0.9-0.7
		c0.1,0,0.3,0,0.6,0.1c0.3,0,0.5,0.1,0.6,0.1c0.1,0,0.3,0,0.5-0.1c0.1,0,0.2-0.1,0.4-0.1C296.5,152.6,296.7,152.8,296.7,153.2z"/>
	<path d="M314.4,156.9c0,0.5,0,0.9-0.1,1s-0.3,0.2-0.6,0.2H307c-0.2,0-0.3,0-0.4,0.1c-0.1,0-0.1,0.1-0.1,0.2c0,1,0.3,1.9,0.9,2.6
		s1.4,1,2.4,1c0.6,0,1.2-0.2,1.7-0.5c0.5-0.3,0.8-0.8,1-1.3l0.2-0.6c0.1-0.3,0.3-0.5,0.7-0.5c0.5,0,0.8,0.3,0.8,0.8
		c0,0.9-0.5,1.7-1.4,2.4c-0.9,0.7-2,1.1-3.2,1.1c-1.5,0-2.6-0.5-3.5-1.5c-0.9-1-1.3-2.3-1.3-4c0-1.7,0.5-3.1,1.4-4.2
		c0.9-1.1,2.1-1.6,3.6-1.6c1.3,0,2.4,0.4,3.3,1.3C314,154.4,314.4,155.5,314.4,156.9z M306.8,156.3c0,0.2,0.2,0.3,0.5,0.3h5
		c0.3,0,0.4-0.1,0.4-0.3c0-0.7-0.3-1.4-0.8-1.9c-0.6-0.5-1.2-0.8-2-0.8c-0.8,0-1.5,0.3-2.1,0.9C307.1,155,306.8,155.6,306.8,156.3z"
		/>
	<path d="M321.4,152.2c0.9,0,1.7,0.2,2.3,0.7v-0.1c0-0.5,0.2-0.8,0.7-0.8c0.5,0,0.7,0.2,0.7,0.7c0,0.1,0,0.3,0,0.6
		c0,0.3-0.1,0.6-0.1,0.8c0,0.2,0,0.4,0.1,0.7c0,0.3,0.1,0.6,0.1,0.7c0,0.5-0.2,0.8-0.7,0.8c-0.4,0-0.7-0.2-0.7-0.7v-0.7
		c0-0.4-0.3-0.8-0.7-1.1s-1-0.5-1.6-0.5c-0.6,0-1.2,0.2-1.6,0.5s-0.7,0.7-0.7,1.2c0,0.9,0.6,1.4,1.8,1.6l1.2,0.2
		c2.4,0.3,3.6,1.3,3.6,3c0,1-0.4,1.8-1.2,2.4c-0.8,0.6-1.8,0.9-3,0.9c-1.2,0-2.2-0.3-3-1c0,0.1,0,0.3,0,0.4c0,0.5-0.2,0.8-0.7,0.8
		c-0.5,0-0.8-0.3-0.8-0.9c0,0.1,0-0.3,0.1-1.1c0-0.2,0-0.4,0-0.6c0-0.3,0-0.7-0.1-0.9c-0.1-0.3-0.1-0.5-0.1-0.7
		c0-0.5,0.2-0.7,0.7-0.7c0.3,0,0.5,0.1,0.6,0.2c0.1,0.1,0.1,0.5,0.1,1.1c0,0.6,0.3,1.1,0.9,1.5s1.4,0.6,2.4,0.6
		c0.7,0,1.3-0.2,1.7-0.5s0.7-0.8,0.7-1.3c0-1-0.8-1.5-2.3-1.7c-1.4-0.2-2.5-0.4-3.3-0.9c-0.8-0.4-1.1-1.1-1.1-2.2
		c0-1,0.4-1.8,1.1-2.4C319.3,152.5,320.3,152.2,321.4,152.2z"/>
	<path d="M332.8,152.2c0.9,0,1.7,0.2,2.3,0.7v-0.1c0-0.5,0.2-0.8,0.7-0.8c0.5,0,0.7,0.2,0.7,0.7c0,0.1,0,0.3,0,0.6
		c0,0.3-0.1,0.6-0.1,0.8c0,0.2,0,0.4,0.1,0.7c0,0.3,0.1,0.6,0.1,0.7c0,0.5-0.2,0.8-0.7,0.8c-0.4,0-0.7-0.2-0.7-0.7v-0.7
		c0-0.4-0.3-0.8-0.7-1.1s-1-0.5-1.6-0.5c-0.6,0-1.2,0.2-1.6,0.5s-0.7,0.7-0.7,1.2c0,0.9,0.6,1.4,1.8,1.6l1.2,0.2
		c2.4,0.3,3.6,1.3,3.6,3c0,1-0.4,1.8-1.2,2.4c-0.8,0.6-1.8,0.9-3,0.9c-1.2,0-2.2-0.3-3-1c0,0.1,0,0.3,0,0.4c0,0.5-0.2,0.8-0.7,0.8
		c-0.5,0-0.8-0.3-0.8-0.9c0,0.1,0-0.3,0.1-1.1c0-0.2,0-0.4,0-0.6c0-0.3,0-0.7-0.1-0.9c-0.1-0.3-0.1-0.5-0.1-0.7
		c0-0.5,0.2-0.7,0.7-0.7c0.3,0,0.5,0.1,0.6,0.2c0.1,0.1,0.1,0.5,0.1,1.1c0,0.6,0.3,1.1,0.9,1.5s1.4,0.6,2.4,0.6
		c0.7,0,1.3-0.2,1.7-0.5s0.7-0.8,0.7-1.3c0-1-0.8-1.5-2.3-1.7c-1.4-0.2-2.5-0.4-3.3-0.9c-0.8-0.4-1.1-1.1-1.1-2.2
		c0-1,0.4-1.8,1.1-2.4C330.7,152.5,331.6,152.2,332.8,152.2z"/>
</g>
<circle cx="56.6" cy="157.8" r="1.6"/>
<circle cx="346.8" cy="157.8" r="1.6"/>
<g>
	<g>
		<path d="M45.3,61c-0.7-0.5-0.5-0.9,0.2-1.1c1.3-0.4,2.5-1,3.7-1.5c0.5-3,1-5.6,1.4-6.8c0.2-0.7,0.7-0.9,1.1-0.4
			c1,1.1,1.5,2.6,1.3,5.3c1.7-0.7,2.7-0.1,3.3,0.3c0.5,0.4,0.4,0.8-0.2,1.1c-1,0.2-2.4,0.9-3.5,1.5c-0.7,3.7-1.7,9-2,13.4
			c-0.3,3.8,1.2,6.5,3.1,5.9c2.1-0.6,3.5-4.8,3.9-8.8c0.1-0.6,0.5-0.9,0.9-0.3c0.5,0.6,0.6,1.5,0.5,2.7c-0.1,1.5-1.7,6.6-5.3,7.7
			c-3,1-6.6-1.5-6.3-7.5c0.1-2.6,0.7-7.1,1.3-11.3C47.1,61.6,45.9,61.3,45.3,61z"/>
		<path d="M70.6,73.8c-3.8,1.4-5.7-1-5.8-5.5c-0.1-4.9,2.1-11,1.3-11.2c-0.8-0.1-4.6,4.7-5.6,10c-0.7,3.3-1.2,7-1.3,10.2
			c0,0.5-0.3,0.7-0.7,0.5c-1-0.6-1.9-1.7-1.9-4.7c-0.1-5.1,3.6-24.4,5.6-30.3c0.2-0.7,0.7-0.8,1.1-0.3c1.1,1.1,1.7,3.4,1.1,6.9
			c-0.4,2.2-1.5,6.7-2.3,10.4c1.2-2.5,3-4.8,4.3-5.1c1.6-0.4,3.8,1.4,3.5,4.1c-0.3,2.3-1.2,6.4-1.4,9.1c-0.2,3,0.8,5.1,2.5,4.4
			c1.8-0.8,3.1-4.9,3.5-8.3c0-0.5,0.5-0.6,0.8-0.3c0.4,0.4,0.7,1.4,0.6,3C75.2,69.6,73.3,72.8,70.6,73.8z"/>
		<path d="M82,68.2c3.8-1.2,5.8-6,6.7-9.7c0.1-0.4,0.5-0.6,0.8-0.2c0.3,0.3,0.6,1.6,0.2,3.1c-0.9,3.4-3.6,6.8-7.1,8.1
			c-5.7,2.2-9.7-2.8-8.9-9.6c0.8-6.9,4.6-10.9,7.3-10.4c1.4,0.3,2.4,0.7,3.5,1.4c1.2,0.8,1.8,3.7,0.8,6.7c-1.2,3.5-3.8,5.8-7.9,4.4
			C77.5,66.5,79.6,68.9,82,68.2z M82,56.5c0.8-2.4,0.9-5.1,0.1-5.4c-1.2-0.4-4,3.6-4.6,8.7c0,0.3-0.1,0.6-0.1,0.9
			C80.2,61.3,81.3,58.6,82,56.5z"/>
	</g>
	<g>
		<path d="M61.1,119.5c-0.2,0.7-0.7,0.9-1.2,0.3c-1.2-1.4-1.8-4.2-0.4-8.1c3.5-9.7,13-26.8,18.6-36.4c0.6-1.1,1.2-1.2,1.9-0.6
			c2.7,1.9,3.2,4,2.4,8.9c-1.2,6.8-1.9,15.8-2.4,25.9C85,98.4,93.3,83.4,98.7,75c0.6-0.9,1.2-0.6,1.7,0.1c1.1,2.2,1,5-2.2,10.4
			c-4.2,7.1-13.4,24.3-17.6,33.9c-0.3,0.7-0.6,0.9-1.4,0.4c-2.2-1.2-3.2-2.9-3.5-7.5c-0.4-4.4-0.1-14.1,1.2-24.3
			C71.4,97.4,64,110.8,61.1,119.5z"/>
		<path d="M114.2,104.5c-1.5,6.1-6,13.4-11.4,15.2c-2.6,0.9-6.2,0.6-9.1-3.2c-3.2-4.2-2.1-10.4,1.2-16.2c2.7-4.9,7.1-9.1,11.4-9.4
			c2.2-0.1,3.5,0.5,4.9,2.4c1.7,2.2,3.8,2.7,3.4,7.9c-0.1,0.6-0.1,1.1-0.1,1.7c0.4,0,0.9-0.1,1.4-0.1c0.5,0,0.5,0.4,0.2,0.7
			C115.6,104.1,114.9,104.4,114.2,104.5z M108.1,102.7c-1.5-1.2-3.2-3.7-3.3-6.3c-1.9,1.7-4,4-5.5,6.8c-3,5.5-4.1,12.1-2.2,13.7
			c2,1.7,6.4-0.9,9.9-7.5c1.1-2,1.9-4,2.5-5.8C109,103.3,108.5,103.1,108.1,102.7z M110.5,96.3c-0.4-2.3-1.8-1.9-2.2,0.2
			c-0.4,1.9,0.4,4,1.6,5.1C110.5,99.4,110.8,97.6,110.5,96.3z"/>
		<path d="M119.7,89.2c-0.7-1-0.3-1.5,0.8-1.4c2,0.1,4-0.1,6-0.3c2.2-4,4.2-7.3,5.5-8.9c0.6-0.9,1.4-0.9,1.7,0
			c0.8,2,0.8,4.4-0.9,8.1c2.8-0.1,3.9,1.2,4.5,2.2c0.5,0.9,0.2,1.4-0.9,1.4c-1.6-0.2-3.8,0-5.6,0.3c-2.8,4.8-6.9,11.8-9.6,17.9
			c-2.4,5.3-1.6,9.7,1.4,9.9c3.2,0.1,7.3-5,10-10.4c0.4-0.9,1.2-1,1.5,0c0.4,1.2,0,2.4-0.7,4.1c-0.9,2.1-5.7,8.4-11.4,8.2
			c-4.8-0.1-8.6-5.5-5.1-13.8c1.5-3.6,4.5-9.6,7.6-15.3C122,91,120.3,89.9,119.7,89.2z"/>
		<path d="M139.3,118.1c6,0.3,11.2-5.5,14.3-10.2c0.4-0.6,0.9-0.6,1.2,0.1c0.3,0.6,0.1,2.6-1.2,4.5c-3,4.4-8.6,7.7-14.1,7.8
			c-9.1,0.1-12.3-8.9-7.6-18.1c4.7-9.3,12-13,15.6-10.9c1.8,1.1,3.1,2.2,4.2,3.7c1.3,1.7,0.7,6.1-2.3,9.8c-3.5,4.3-8.4,6.2-13.4,2.1
			C133.7,113.3,135.4,117.9,139.3,118.1z M145.2,101.5c2.3-3,3.9-6.8,2.9-7.6c-1.5-1.2-7.5,3.1-10.9,9.9c-0.2,0.4-0.4,0.9-0.6,1.2
			C140.2,107.4,143.1,104.3,145.2,101.5z"/>
		<path d="M167.9,81.7c-4.3,0.1-7.4-1.4-8.2-4.1c-0.2-0.6,0.1-1,0.8-0.9c6.4,0.5,18.4-2.2,22.5-2c3,0.1,5.8,0.9,6.8,3.7
			c0.2,0.6,0.1,1.2-0.9,1.1c-3.5-0.4-8.1,0.4-12.2,1.1c0.1,1.7-0.4,4.1-2.4,7.6c-4.3,7.8-10.4,17.9-16.1,31.1
			c-0.3,0.7-0.6,0.7-1.2,0.2c-1-0.9-1.9-3.1-0.9-6.6c1.7-5.9,9.4-21.5,16.1-31.7C170.7,81.5,169.2,81.7,167.9,81.7z"/>
		<path d="M195.1,91.2c0.6-0.9,1.2-1.1,1.7-0.4c1.1,1.3,1.7,4.4-0.1,8c-1.6,3.2-5.2,8.6-6.9,12.5c-1.8,4-1.9,7.1,0.6,7
			c3-0.1,6.9-5,9.4-10c0.4-0.6,0.9-0.7,1.2-0.1s0.3,2.4-0.6,4.5c-1.9,4-6.4,7.9-10.4,7.7c-3.9-0.2-5.9-2.5-5.9-5.9
			c-2.3,3-5.5,5.6-9,5.6c-6.7,0-8.1-9.1-2.1-17.9c5.8-8.5,11.5-11.7,15.1-11.7c3.1,0,4.5,2.4,4.4,5.2
			C193.5,93.9,194.3,92.4,195.1,91.2z M189.4,94.2c-2.3-0.2-7.6,4.5-11.5,10.9c-3.8,6.2-4.8,12.5-1.9,12.6c3,0.1,6.7-4.5,10.4-10.9
			C190.8,98.9,191.5,94.4,189.4,94.2z"/>
		<path d="M218,89.9c2.7-0.9,4.5,0.1,5.9,3.2c1.4,2.8,1.2,5.8-1.5,8.4c-2.4,2.4-5.5,4.5-10,5.8c0.3,5.9,2.3,10,5,10.3
			c3,0.3,6.9-5.3,9.1-9.7c0.4-0.9,1.1-0.9,1.4-0.1c0.4,0.9,0.2,2.6-0.9,4.4c-1.7,3-5,7.6-10.7,7.6c-5-0.1-9.3-4.2-9.1-13.9
			c0-1.3,0.1-1.5,1.5-1.9c8.9-3,13.7-9.2,12.6-11.1c-0.8-1.3-4-0.5-7.8,2.4c-5.4,4.1-8.6,10.4-14.2,23.7c-0.2,0.6-0.8,0.7-1.3,0.1
			c-1.1-1.2-1.4-3.5-0.1-7.9c2-6.6,14-30.2,20.4-39c0.6-0.9,1.4-0.9,1.8-0.1c1.1,2.2,0.9,5-2.1,10.3c-1.7,3-4.5,8-6.5,11.5
			C213.9,91.8,216.2,90.6,218,89.9z"/>
		<path d="M262.2,120.1c-5.5-0.3-7.6-5.2-5.8-11c1.5-4.8,5.8-10.2,8.9-13.6c-3.2,2-6.4,2.7-8.6,2.7c-6,12.5-13.8,21.6-22.3,21.7
			c-9.1,0.1-12.2-8.8-7.6-18c4.5-8.9,11.9-13,15.5-10.9c1.8,1.1,3.1,2.1,4.2,3.7c1.2,1.7,0.5,6-2.4,9.6c-3.4,4.4-8.2,6.2-13.2,2.2
			c-2.3,6.6-0.5,11.2,3.2,11.4c7.9,0.4,15.8-11,19.8-20.2c-5.5-2.3,1.5-11.9,4.5-12c2.2-0.1,1.5,4.3-0.3,9c2.5-0.4,5-1.5,7.8-3.4
			c0.9-0.6,1.5-0.9,2-0.2c1.4,1.6,3.2,5,1.1,7.4c-3.4,3.7-7.1,8.6-8.3,12.5c-1.2,4-0.4,6.8,1.8,6.9c3,0.1,6.7-4.6,9-9.9
			c0.3-0.6,0.8-0.7,1.1-0.1c0.4,0.8,0.5,2.7-0.4,4.7C270.5,117,266.2,120.3,262.2,120.1z M240.1,101.5c2.3-3,3.8-6.7,2.9-7.5
			c-1.6-1.4-7.5,3.2-10.8,9.8c-0.2,0.4-0.4,0.9-0.6,1.2C235.1,107.2,237.9,104.2,240.1,101.5z"/>
	</g>
	<g>
		<path class="st1" d="M339,125.8l-36.8-0.2c-9.5,0-17.2-7.8-17.1-17.3l0.2-33.4c0-9.5,7.8-17.2,17.3-17.1l36.8,0.2
			c9.5,0,17.2,7.8,17.1,17.3l-0.2,33.4C356.3,118.2,348.5,125.9,339,125.8z"/>
		<g>
			<path class="st2" d="M341.3,120.5l-36.8-0.2c-9.5,0-17.2-7.8-17.1-17.3l0.2-33.4c0-9.5,7.8-17.2,17.3-17.1l36.8,0.2
				c9.5,0,17.2,7.8,17.1,17.3l-0.2,33.4C358.6,112.9,350.8,120.5,341.3,120.5z"/>
			<g>
				<line class="st0" x1="292.6" y1="59.6" x2="295.6" y2="59.6"/>
				<line class="st0" x1="292.6" y1="68.8" x2="295.5" y2="68.8"/>
				<line class="st0" x1="292.6" y1="78" x2="295.5" y2="78"/>
				<line class="st0" x1="292.5" y1="87.2" x2="295.5" y2="87.3"/>
				<line class="st0" x1="292.5" y1="96.5" x2="295.4" y2="96.5"/>
				<line class="st0" x1="297.4" y1="59.6" x2="351.2" y2="59.9"/>
				<line class="st0" x1="297.4" y1="68.8" x2="351.2" y2="69.1"/>
				<line class="st0" x1="297.3" y1="78.1" x2="351.1" y2="78.3"/>
				<line class="st0" x1="297.3" y1="87.3" x2="351.1" y2="87.5"/>
				<line class="st0" x1="297.2" y1="96.5" x2="351.1" y2="96.8"/>
				<line class="st0" x1="292.4" y1="104.1" x2="295.4" y2="104.1"/>
				<line class="st0" x1="292.4" y1="113.3" x2="295.3" y2="113.3"/>
				<line class="st0" x1="297.2" y1="104.1" x2="351" y2="104.3"/>
				<line class="st0" x1="297.2" y1="113.3" x2="351" y2="113.6"/>
			</g>
		</g>
	</g>
	<g>
		
			<rect x="331.5" y="43.9" transform="matrix(-0.6907 -0.7231 0.7231 -0.6907 520.6369 371.0819)" class="st3" width="16.4" height="60.6"/>
		
			<rect x="335.6" y="43.9" transform="matrix(-0.6907 -0.7231 0.7231 -0.6907 520.6369 371.0819)" class="st4" width="8.2" height="60.6"/>
		<path class="st5" d="M358.5,45.2l11.1,11.6c0.5,0.5,0.5,1.4,0,1.9l-0.4,0.4c-0.5,0.5-1.4,0.5-1.9,0l-11.1-11.6
			c-0.5-0.5-0.5-1.4,0-1.9l0.4-0.4C357.1,44.6,357.9,44.7,358.5,45.2z"/>
		
			<rect x="357" y="48.2" transform="matrix(-0.6907 -0.7231 0.7231 -0.6907 581.3628 348.3405)" class="st6" width="16.4" height="3.3"/>
		<path class="st7" d="M371.6,35.1l8.6,9c0.9,0.9,0.8,2.3-0.1,3.2l-5.6,5.3c-0.9,0.9-2.3,0.8-3.2-0.1l-8.6-9
			c-0.9-0.9-0.8-2.3,0.1-3.2l5.6-5.3C369.3,34.1,370.7,34.2,371.6,35.1z"/>
		<polygon class="st7" points="370.8,44.4 370.8,44.4 372.6,42.7 372.6,42.7 		"/>
		<path class="st5" d="M363.3,40.7l10.9,11.4c0.6,0.6,0.5,1.5,0,2.1l-0.3,0.3c-0.6,0.6-1.5,0.5-2.1,0L360.9,43
			c-0.6-0.6-0.5-1.5,0-2.1l0.3-0.3C361.8,40.1,362.8,40.1,363.3,40.7z"/>
		<path class="st8" d="M323.4,101.1c0,0,0.2-2.5-2.8-3c0,0-0.2-5.2-5.7-5.9c0,0,0.3-2.9-2.8-3l-8.9,19.8L323.4,101.1z"/>
		<path d="M310.4,103.9c0,0,0.2-2.4-1.7-1.5c0,0-0.1-2.9-2-1l-3.5,7.8l8.1-3.2C311.3,105.8,312.8,103.9,310.4,103.9z"/>
	</g>
</g>
</svg>
